<svg width="68" height="68" viewBox="0 0 68 68" fill="none" xmlns="http://www.w3.org/2000/svg">
<rect width="68" height="68" rx="8" fill="#F20587" fill-opacity="0.12"/>
<g clip-path="url(#clip0_1_1657)">
<path d="M46.75 58.0001H27.25C27.0511 58.0001 26.8603 57.921 26.7197 57.7804C26.579 57.6397 26.5 57.449 26.5 57.2501V47.5001H21.25C20.2558 47.4989 19.3027 47.1034 18.5997 46.4004C17.8967 45.6974 17.5012 44.7443 17.5 43.7501V40.0001H14.6875C14.239 40.0002 13.7992 39.8766 13.4164 39.6429C13.0337 39.4091 12.7229 39.0743 12.5182 38.6752C12.3136 38.2762 12.2231 37.8284 12.2566 37.3812C12.2901 36.9339 12.4464 36.5047 12.7082 36.1406L17.5 27.7976C17.5317 25.3744 18.0503 22.9824 19.025 20.7637C19.9997 18.545 21.4105 16.545 23.1737 14.8826C24.9625 13.188 27.083 11.8824 29.4015 11.0481C31.7199 10.2138 34.1861 9.86899 36.6445 10.0353C41.0466 10.3528 45.1826 12.2616 48.2804 15.4053C51.3783 18.5489 53.2261 22.7125 53.479 27.1188C53.6 29.4815 53.2513 31.8448 52.4531 34.0719C51.655 36.299 50.4232 38.3458 48.829 40.0938C47.9681 41.0478 47.4941 42.2888 47.5 43.5738V52.7501C47.5 52.949 47.421 53.1397 47.2803 53.2804C47.1397 53.421 46.9489 53.5001 46.75 53.5001C46.5511 53.5001 46.3603 53.421 46.2197 53.2804C46.079 53.1397 46 52.949 46 52.7501V43.5738C45.9931 41.9154 46.6056 40.3141 47.7175 39.0836C49.1788 37.4812 50.308 35.605 51.0397 33.5636C51.7714 31.5221 52.0912 29.3559 51.9805 27.1901C51.7487 23.1514 50.0549 19.3351 47.2154 16.4538C44.3759 13.5725 40.5848 11.8231 36.55 11.5323C34.2992 11.3888 32.0429 11.7082 29.9204 12.4709C27.7979 13.2335 25.8543 14.4232 24.2096 15.9665C22.5649 17.5098 21.2541 19.3738 20.3581 21.4435C19.462 23.5133 18.9998 25.7447 19 28.0001C19.0002 28.1316 18.9658 28.261 18.9002 28.3751L13.9877 36.9251C13.9727 36.9512 13.9559 36.9762 13.9375 37.0001C13.833 37.1393 13.7694 37.305 13.7538 37.4784C13.7381 37.6518 13.7711 37.8261 13.849 37.9818C13.9268 38.1375 14.0465 38.2685 14.1946 38.36C14.3427 38.4516 14.5134 38.5001 14.6875 38.5001H18.25C18.4489 38.5001 18.6397 38.5791 18.7803 38.7197C18.921 38.8604 19 39.0511 19 39.2501V43.7501C19 44.3468 19.237 44.9191 19.659 45.341C20.081 45.763 20.6533 46.0001 21.25 46.0001H27.25C27.4489 46.0001 27.6397 46.0791 27.7803 46.2197C27.921 46.3604 28 46.5511 28 46.7501V56.5001H46V55.7501C46 55.5511 46.079 55.3604 46.2197 55.2197C46.3603 55.0791 46.5511 55.0001 46.75 55.0001C46.9489 55.0001 47.1397 55.0791 47.2803 55.2197C47.421 55.3604 47.5 55.5511 47.5 55.7501V57.2501C47.5 57.449 47.421 57.6397 47.2803 57.7804C47.1397 57.921 46.9489 58.0001 46.75 58.0001Z" fill="#F20587"/>
<path d="M32.5 39.25C32.3011 39.25 32.1103 39.171 31.9697 39.0303C31.829 38.8897 31.75 38.6989 31.75 38.5V35.998C30.1864 35.3274 28.8548 34.2115 27.9212 32.7892C26.9876 31.3669 26.4933 29.7013 26.5 28C26.5 25.6131 27.4482 23.3239 29.136 21.636C30.8239 19.9482 33.1131 19 35.5 19C37.887 19 40.1761 19.9482 41.864 21.636C43.5518 23.3239 44.5 25.6131 44.5 28C44.5109 29.309 44.2205 30.603 43.6512 31.7817C43.082 32.9605 42.2492 33.9926 41.2173 34.798C41.1405 34.8615 41.0518 34.9091 40.9564 34.938C40.861 34.9669 40.7608 34.9765 40.6617 34.9662C40.5626 34.9559 40.4665 34.926 40.379 34.8781C40.2916 34.8303 40.2146 34.7655 40.1525 34.6875C40.0904 34.6096 40.0444 34.52 40.0173 34.4241C39.9902 34.3282 39.9825 34.2279 39.9947 34.1289C40.0068 34.03 40.0385 33.9345 40.088 33.848C40.1374 33.7614 40.2037 33.6856 40.2828 33.625C41.1369 32.9587 41.8262 32.1048 42.2974 31.1294C42.7686 30.154 43.009 29.0832 43 28C43 26.0109 42.2098 24.1032 40.8033 22.6967C39.3968 21.2902 37.4891 20.5 35.5 20.5C33.5109 20.5 31.6032 21.2902 30.1967 22.6967C28.7902 24.1032 28 26.0109 28 28C27.9996 29.4869 28.4577 30.9377 29.3119 32.1547C30.166 33.3717 31.3746 34.2958 32.773 34.801C32.9136 34.856 33.0344 34.9521 33.1195 35.0768C33.2046 35.2015 33.2501 35.349 33.25 35.5V37.5393L37.75 36.4143V35.5C37.75 35.3011 37.829 35.1103 37.9697 34.9697C38.1103 34.829 38.3011 34.75 38.5 34.75C38.6989 34.75 38.8897 34.829 39.0303 34.9697C39.171 35.1103 39.25 35.3011 39.25 35.5V37C39.25 37.1672 39.1941 37.3296 39.0913 37.4614C38.9884 37.5932 38.8444 37.6869 38.6823 37.7275L32.6823 39.2275C32.6227 39.2424 32.5614 39.25 32.5 39.25Z" fill="#F20587"/>
<path d="M32.5 41.5C32.3171 41.4998 32.1405 41.4327 32.0036 41.3114C31.8667 41.1901 31.7788 41.023 31.7565 40.8414C31.7341 40.6598 31.779 40.4764 31.8825 40.3255C31.986 40.1747 32.1411 40.0669 32.3185 40.0225L38.3185 38.5225C38.4143 38.4977 38.5141 38.4922 38.612 38.5062C38.71 38.5202 38.8042 38.5534 38.8892 38.604C38.9743 38.6545 39.0485 38.7214 39.1076 38.8008C39.1667 38.8802 39.2094 38.9704 39.2335 39.0664C39.2575 39.1624 39.2624 39.2622 39.2477 39.36C39.233 39.4579 39.1991 39.5518 39.1479 39.6365C39.0967 39.7212 39.0293 39.7949 38.9495 39.8534C38.8697 39.912 38.7792 39.9541 38.683 39.9775L32.683 41.4775C32.6232 41.4926 32.5617 41.5002 32.5 41.5Z" fill="#F20587"/>
<path d="M32.5 43.75C32.3171 43.7498 32.1405 43.6827 32.0036 43.5614C31.8667 43.4401 31.7788 43.273 31.7565 43.0914C31.7341 42.9098 31.779 42.7264 31.8825 42.5755C31.986 42.4247 32.1411 42.3169 32.3185 42.2725L38.3185 40.7725C38.4143 40.7477 38.5141 40.7422 38.612 40.7562C38.71 40.7702 38.8042 40.8034 38.8892 40.854C38.9743 40.9045 39.0485 40.9714 39.1076 41.0508C39.1667 41.1302 39.2094 41.2204 39.2335 41.3164C39.2575 41.4124 39.2624 41.5122 39.2477 41.61C39.233 41.7079 39.1991 41.8018 39.1479 41.8865C39.0967 41.9712 39.0293 42.0449 38.9495 42.1034C38.8697 42.162 38.7792 42.2041 38.683 42.2275L32.683 43.7275C32.6232 43.7426 32.5617 43.7502 32.5 43.75Z" fill="#F20587"/>
<path d="M35.5 45.25C34.9033 45.25 34.331 45.0129 33.909 44.591C33.4871 44.169 33.25 43.5967 33.25 43C33.25 42.8011 33.329 42.6103 33.4697 42.4697C33.6103 42.329 33.8011 42.25 34 42.25C34.1989 42.25 34.3897 42.329 34.5303 42.4697C34.671 42.6103 34.75 42.8011 34.75 43C34.75 43.1989 34.829 43.3897 34.9697 43.5303C35.1103 43.671 35.3011 43.75 35.5 43.75C35.6989 43.75 35.8897 43.671 36.0303 43.5303C36.171 43.3897 36.25 43.1989 36.25 43V42.25C36.25 42.0511 36.329 41.8603 36.4697 41.7197C36.6103 41.579 36.8011 41.5 37 41.5C37.1989 41.5 37.3897 41.579 37.5303 41.7197C37.671 41.8603 37.75 42.0511 37.75 42.25V43C37.75 43.5967 37.5129 44.169 37.091 44.591C36.669 45.0129 36.0967 45.25 35.5 45.25Z" fill="#F20587"/>
<path d="M36.25 36.25H34.75C34.5871 36.2499 34.4286 36.1968 34.2986 36.0987C34.1686 36.0006 34.074 35.8628 34.0292 35.7062L32.5292 30.4562C32.4892 30.3163 32.4907 30.1677 32.5336 30.0286C32.5765 29.8895 32.659 29.7659 32.7709 29.6729C32.8829 29.5799 33.0195 29.5215 33.1641 29.5047C33.3087 29.488 33.455 29.5137 33.5852 29.5787C34.1856 29.8986 34.8313 30.1249 35.5 30.25C36.1688 30.1254 36.8145 29.899 37.4147 29.5787C37.545 29.5137 37.6913 29.488 37.8359 29.5047C37.9805 29.5215 38.1171 29.5799 38.229 29.6729C38.341 29.7659 38.4234 29.8895 38.4664 30.0286C38.5093 30.1677 38.5108 30.3163 38.4707 30.4562L36.9707 35.7062C36.9259 35.8628 36.8314 36.0006 36.7013 36.0987C36.5713 36.1968 36.4129 36.2499 36.25 36.25ZM35.3155 34.75H35.6845L36.6032 31.5332C36.2481 31.6592 35.8764 31.7323 35.5 31.75C35.1236 31.7323 34.7518 31.6592 34.3967 31.5332L35.3155 34.75Z" fill="#F20587"/>
<path d="M35.5 17.5C35.3011 17.5 35.1103 17.421 34.9697 17.2803C34.829 17.1397 34.75 16.9489 34.75 16.75V16C34.75 15.8011 34.829 15.6103 34.9697 15.4697C35.1103 15.329 35.3011 15.25 35.5 15.25C35.6989 15.25 35.8897 15.329 36.0303 15.4697C36.171 15.6103 36.25 15.8011 36.25 16V16.75C36.25 16.9489 36.171 17.1397 36.0303 17.2803C35.8897 17.421 35.6989 17.5 35.5 17.5Z" fill="#F20587"/>
<path d="M29.875 19.0074C29.7432 19.0076 29.6137 18.973 29.4996 18.9071C29.3854 18.8413 29.2906 18.7466 29.2248 18.6324L28.8498 17.9829C28.7997 17.8976 28.7671 17.8032 28.7537 17.7052C28.7403 17.6072 28.7464 17.5076 28.7717 17.4119C28.797 17.3163 28.8409 17.2266 28.901 17.1481C28.9611 17.0695 29.0361 17.0036 29.1218 16.9541C29.2074 16.9047 29.302 16.8726 29.4001 16.8599C29.4982 16.8471 29.5978 16.8539 29.6933 16.8798C29.7887 16.9058 29.8781 16.9503 29.9563 17.0109C30.0345 17.0715 30.0999 17.147 30.1488 17.2329L30.5238 17.8824C30.5895 17.9964 30.6242 18.1257 30.6242 18.2573C30.6243 18.3888 30.5897 18.5181 30.5239 18.6321C30.4582 18.7461 30.3636 18.8408 30.2497 18.9067C30.1358 18.9726 30.0066 19.0073 29.875 19.0074Z" fill="#F20587"/>
<path d="M25.7568 23.125C25.6251 23.1253 25.4957 23.0906 25.3818 23.0245L24.7323 22.6495C24.6463 22.6007 24.5708 22.5352 24.5102 22.4571C24.4496 22.3789 24.4051 22.2895 24.3792 22.1941C24.3533 22.0986 24.3465 21.999 24.3592 21.9009C24.372 21.8028 24.404 21.7082 24.4535 21.6226C24.5029 21.5369 24.5688 21.4619 24.6474 21.4018C24.726 21.3417 24.8156 21.2978 24.9113 21.2725C25.0069 21.2472 25.1066 21.2411 25.2046 21.2545C25.3026 21.2679 25.3969 21.3005 25.4823 21.3505L26.1318 21.7255C26.2747 21.8081 26.3865 21.9355 26.4497 22.0881C26.5128 22.2406 26.5239 22.4097 26.4812 22.5692C26.4385 22.7286 26.3443 22.8695 26.2133 22.9701C26.0823 23.0706 25.9219 23.125 25.7568 23.125Z" fill="#F20587"/>
<path d="M24.25 28.75H23.5C23.3011 28.75 23.1103 28.671 22.9697 28.5303C22.829 28.3897 22.75 28.1989 22.75 28C22.75 27.8011 22.829 27.6103 22.9697 27.4697C23.1103 27.329 23.3011 27.25 23.5 27.25H24.25C24.4489 27.25 24.6397 27.329 24.7803 27.4697C24.921 27.6103 25 27.8011 25 28C25 28.1989 24.921 28.3897 24.7803 28.5303C24.6397 28.671 24.4489 28.75 24.25 28.75Z" fill="#F20587"/>
<path d="M25.1087 34.75C24.9436 34.75 24.7832 34.6956 24.6522 34.5951C24.5212 34.4945 24.4271 34.3536 24.3843 34.1942C24.3416 34.0347 24.3527 33.8656 24.4158 33.7131C24.479 33.5605 24.5908 33.4331 24.7337 33.3505L25.3832 32.9755C25.4686 32.9255 25.5629 32.8929 25.6609 32.8795C25.7589 32.8661 25.8586 32.8722 25.9542 32.8975C26.0499 32.9228 26.1395 32.9667 26.2181 33.0268C26.2967 33.0869 26.3626 33.1619 26.4121 33.2476C26.4615 33.3332 26.4935 33.4278 26.5063 33.5259C26.519 33.624 26.5123 33.7236 26.4863 33.8191C26.4604 33.9145 26.4159 34.0039 26.3553 34.0821C26.2947 34.1602 26.2192 34.2257 26.1332 34.2745L25.4837 34.6495C25.3697 34.7154 25.2404 34.75 25.1087 34.75Z" fill="#F20587"/>
<path d="M45.8912 34.75C45.7596 34.75 45.6302 34.7154 45.5162 34.6495L44.8667 34.2745C44.7808 34.2257 44.7053 34.1602 44.6447 34.0821C44.5841 34.0039 44.5395 33.9145 44.5136 33.8191C44.4877 33.7236 44.4809 33.624 44.4937 33.5259C44.5064 33.4278 44.5385 33.3332 44.5879 33.2476C44.6374 33.1619 44.7033 33.0869 44.7819 33.0268C44.8604 32.9667 44.9501 32.9228 45.0457 32.8975C45.1414 32.8722 45.241 32.8661 45.339 32.8795C45.437 32.8929 45.5314 32.9255 45.6167 32.9755L46.2662 33.3505C46.4092 33.4331 46.5209 33.5605 46.5841 33.7131C46.6473 33.8656 46.6584 34.0347 46.6156 34.1942C46.5729 34.3536 46.4788 34.4945 46.3478 34.5951C46.2168 34.6956 46.0563 34.75 45.8912 34.75Z" fill="#F20587"/>
<path d="M47.5 28.75H46.75C46.5511 28.75 46.3603 28.671 46.2197 28.5303C46.079 28.3897 46 28.1989 46 28C46 27.8011 46.079 27.6103 46.2197 27.4697C46.3603 27.329 46.5511 27.25 46.75 27.25H47.5C47.6989 27.25 47.8897 27.329 48.0303 27.4697C48.171 27.6103 48.25 27.8011 48.25 28C48.25 28.1989 48.171 28.3897 48.0303 28.5303C47.8897 28.671 47.6989 28.75 47.5 28.75Z" fill="#F20587"/>
<path d="M45.2433 23.125C45.0782 23.125 44.9177 23.0706 44.7867 22.9701C44.6557 22.8695 44.5616 22.7286 44.5188 22.5692C44.4761 22.4097 44.4872 22.2406 44.5504 22.0881C44.6135 21.9355 44.7253 21.8081 44.8683 21.7255L45.5178 21.3505C45.6031 21.3005 45.6975 21.2679 45.7955 21.2545C45.8935 21.2411 45.9931 21.2472 46.0888 21.2725C46.1844 21.2978 46.2741 21.3417 46.3526 21.4018C46.4312 21.4619 46.4971 21.5369 46.5466 21.6226C46.596 21.7082 46.6281 21.8028 46.6408 21.9009C46.6536 21.999 46.6468 22.0986 46.6209 22.1941C46.5949 22.2895 46.5504 22.3789 46.4898 22.4571C46.4292 22.5352 46.3537 22.6007 46.2678 22.6495L45.6183 23.0245C45.5044 23.0906 45.3749 23.1253 45.2433 23.125Z" fill="#F20587"/>
<path d="M41.125 19.0074C40.9934 19.0073 40.8642 18.9726 40.7503 18.9067C40.6364 18.8408 40.5418 18.7461 40.4761 18.6321C40.4103 18.5181 40.3758 18.3888 40.3758 18.2573C40.3758 18.1257 40.4105 17.9964 40.4763 17.8824L40.8513 17.2329C40.9002 17.147 40.9656 17.0715 41.0437 17.0109C41.1219 16.9503 41.2113 16.9058 41.3068 16.8798C41.4022 16.8539 41.5018 16.8471 41.5999 16.8599C41.698 16.8726 41.7926 16.9047 41.8783 16.9541C41.9639 17.0036 42.039 17.0695 42.099 17.1481C42.1591 17.2266 42.2031 17.3163 42.2283 17.4119C42.2536 17.5076 42.2597 17.6072 42.2463 17.7052C42.2329 17.8032 42.2003 17.8976 42.1503 17.9829L41.7753 18.6324C41.7094 18.7466 41.6146 18.8413 41.5004 18.9071C41.3863 18.973 41.2568 19.0076 41.125 19.0074Z" fill="#F20587"/>
</g>
<rect x="21" y="66" width="24" height="2" fill="#F20587"/>
<defs>
<clipPath id="clip0_1_1657">
<rect width="48" height="48" fill="white" transform="translate(10 10)"/>
</clipPath>
</defs>
</svg>
