<svg width="68" height="68" viewBox="0 0 68 68" fill="none" xmlns="http://www.w3.org/2000/svg">
<rect width="68" height="68" rx="8" fill="#F20587" fill-opacity="0.12"/>
<path d="M33.8506 40.4078C31.0449 40.4051 28.3078 39.5404 26.0098 37.9307C23.7117 36.3211 21.9638 34.0442 21.0026 31.4083C20.0413 28.7724 19.9132 25.9048 20.6356 23.1936C21.3579 20.4825 22.8959 18.0588 25.0412 16.2507C27.1865 14.4425 29.8356 13.3371 32.6299 13.0843C35.4242 12.8314 38.2287 13.4433 40.6638 14.8369C43.0988 16.2306 45.0469 18.3389 46.2442 20.8763C47.4415 23.4137 47.8302 26.2577 47.3578 29.0233L45.8437 28.7653C45.9599 28.0843 46.0186 27.3948 46.0192 26.704C46.0168 23.7091 44.9091 20.8205 42.9085 18.5919C40.9078 16.3633 38.1549 14.9516 35.1777 14.6275C32.2004 14.3033 29.2082 15.0895 26.7748 16.8353C24.3414 18.5811 22.638 21.1636 21.9912 24.0878C21.3444 27.012 21.7997 30.072 23.2698 32.6812C24.7399 35.2905 27.1213 37.2653 29.9576 38.227C32.7938 39.1888 35.8853 39.0698 38.6392 37.8929C41.3931 36.716 43.6158 34.564 44.881 31.8496L46.2703 32.5024C45.1612 34.8609 43.4051 36.856 41.2065 38.2555C39.0078 39.655 36.4569 40.4014 33.8506 40.4078Z" fill="#F20587"/>
<path d="M25.6507 54.9925C23.0532 54.9945 20.5088 54.2576 18.3142 52.8679C16.1197 51.4783 14.3657 49.4931 13.2569 47.1442C12.148 44.7952 11.7301 42.1794 12.0519 39.6019C12.3737 37.0244 13.4219 34.5916 15.0742 32.5873C16.7265 30.5831 18.9147 29.0901 21.3835 28.2826C23.8523 27.4752 26.4999 27.3865 29.0172 28.0269C31.5345 28.6674 33.8177 30.0106 35.6005 31.8998C37.3832 33.7889 38.5918 36.1462 39.0854 38.6963L37.577 38.9874C36.992 35.9506 35.273 33.2503 32.7692 31.435C30.2653 29.6196 27.1644 28.8254 24.0962 29.2136C21.028 29.6017 18.2225 31.1432 16.2497 33.5249C14.2768 35.9065 13.2844 38.9498 13.4741 42.0367C13.6638 45.1235 15.0213 48.0225 17.2709 50.1447C19.5205 52.2669 22.4936 53.4533 25.5862 53.4628C28.6789 53.4724 31.6593 52.3045 33.922 50.1963C36.1847 48.0881 37.5602 45.1976 37.769 42.112L39.3012 42.2169C39.0679 45.6794 37.5288 48.9243 34.9951 51.2958C32.4614 53.6673 29.1219 54.9885 25.6515 54.9925H25.6507Z" fill="#F20587"/>
<path d="M42.3493 54.8201C39.9458 54.817 37.5855 54.1817 35.5052 52.9778C33.425 51.7739 31.6982 50.0439 30.4981 47.9615C29.298 45.8791 28.6669 43.5176 28.6682 41.1141C28.6695 38.7107 29.3032 36.3499 30.5056 34.2688C30.6423 34.033 30.7844 33.8018 30.9326 33.5776L32.2151 34.4224C32.0836 34.6221 31.9572 34.8269 31.8361 35.0368C30.3148 37.6782 29.8416 40.7948 30.5103 43.7687C31.179 46.7426 32.9408 49.3567 35.4464 51.0926C37.9519 52.8286 41.0183 53.5596 44.0376 53.1408C47.0569 52.7221 49.8085 51.184 51.747 48.8317C53.6856 46.4794 54.6694 43.4845 54.5034 40.4408C54.3375 37.3972 53.0339 34.527 50.8511 32.3994C48.6683 30.2717 45.7658 29.042 42.7189 28.9539C39.672 28.8659 36.7032 29.926 34.4012 31.9241L33.3956 30.7636C35.0678 29.3133 37.0665 28.2897 39.2206 27.7803C41.3747 27.2709 43.6202 27.2909 45.7649 27.8386C47.9096 28.3863 49.8897 29.4453 51.5359 30.9252C53.182 32.405 54.4452 34.2616 55.2173 36.3361C55.9894 38.4106 56.2475 40.6413 55.9695 42.8373C55.6915 45.0333 54.8857 47.1293 53.621 48.946C52.3563 50.7627 50.6703 52.2459 48.7074 53.2689C46.7444 54.2919 44.5628 54.8241 42.3493 54.8201Z" fill="#F20587"/>
<rect x="21" y="66" width="24" height="2" fill="#F20587"/>
</svg>
