<svg width="68" height="68" viewBox="0 0 68 68" fill="none" xmlns="http://www.w3.org/2000/svg">
<rect width="68" height="68" rx="8" fill="#F20587" fill-opacity="0.12"/>
<path d="M28.3993 29.1673H17.2007C16.9971 29.1673 16.8017 29.0864 16.6577 28.9424C16.5137 28.7984 16.4327 28.603 16.4327 28.3993V17.2007C16.4327 16.9971 16.5137 16.8017 16.6577 16.6577C16.8017 16.5137 16.9971 16.4327 17.2007 16.4327H28.3993C28.603 16.4327 28.7984 16.5137 28.9424 16.6577C29.0864 16.8017 29.1673 16.9971 29.1673 17.2007V28.3993C29.1673 28.603 29.0864 28.7984 28.9424 28.9424C28.7984 29.0864 28.603 29.1673 28.3993 29.1673ZM17.9687 27.6313H27.6313V17.9687H17.9687V27.6313Z" fill="#F20587"/>
<path d="M39.5995 29.1673H28.4006C28.1969 29.1673 28.0015 29.0864 27.8575 28.9424C27.7135 28.7984 27.6326 28.603 27.6326 28.3993V17.2007C27.6326 16.9971 27.7135 16.8017 27.8575 16.6577C28.0015 16.5137 28.1969 16.4327 28.4006 16.4327H39.5995C39.8032 16.4327 39.9986 16.5137 40.1426 16.6577C40.2866 16.8017 40.3675 16.9971 40.3675 17.2007V28.3993C40.3675 28.603 40.2866 28.7984 40.1426 28.9424C39.9986 29.0864 39.8032 29.1673 39.5995 29.1673ZM29.1686 27.6313H38.8315V17.9687H29.1686V27.6313Z" fill="#F20587"/>
<path d="M50.7992 29.1673H39.6006C39.397 29.1673 39.2016 29.0864 39.0576 28.9424C38.9136 28.7984 38.8326 28.603 38.8326 28.3993V17.2007C38.8326 16.9971 38.9136 16.8017 39.0576 16.6577C39.2016 16.5137 39.397 16.4327 39.6006 16.4327H50.7992C51.0029 16.4327 51.1983 16.5137 51.3423 16.6577C51.4863 16.8017 51.5672 16.9971 51.5672 17.2007V28.3993C51.5672 28.603 51.4863 28.7984 51.3423 28.9424C51.1983 29.0864 51.0029 29.1673 50.7992 29.1673ZM40.3686 27.6313H50.0312V17.9687H40.3686V27.6313Z" fill="#F20587"/>
<path d="M28.3993 40.3686H17.2007C16.9971 40.3686 16.8017 40.2877 16.6577 40.1437C16.5137 39.9996 16.4327 39.8043 16.4327 39.6006V28.4024C16.4327 28.1987 16.5137 28.0034 16.6577 27.8593C16.8017 27.7153 16.9971 27.6344 17.2007 27.6344H28.3993C28.603 27.6344 28.7984 27.7153 28.9424 27.8593C29.0864 28.0034 29.1673 28.1987 29.1673 28.4024V39.6006C29.1673 39.8043 29.0864 39.9996 28.9424 40.1437C28.7984 40.2877 28.603 40.3686 28.3993 40.3686ZM17.9687 38.8326H27.6313V29.1704H17.9687V38.8326Z" fill="#F20587"/>
<path d="M39.5995 40.3686H28.4006C28.1969 40.3686 28.0015 40.2877 27.8575 40.1437C27.7135 39.9996 27.6326 39.8043 27.6326 39.6006V28.4024C27.6326 28.1987 27.7135 28.0034 27.8575 27.8593C28.0015 27.7153 28.1969 27.6344 28.4006 27.6344H39.5995C39.8032 27.6344 39.9986 27.7153 40.1426 27.8593C40.2866 28.0034 40.3675 28.1987 40.3675 28.4024V39.6006C40.3675 39.8043 40.2866 39.9996 40.1426 40.1437C39.9986 40.2877 39.8032 40.3686 39.5995 40.3686ZM29.1686 38.8326H38.8315V29.1704H29.1686V38.8326Z" fill="#F20587"/>
<path d="M50.7992 40.3686H39.6006C39.397 40.3686 39.2016 40.2877 39.0576 40.1437C38.9136 39.9996 38.8326 39.8043 38.8326 39.6006V28.4024C38.8326 28.1987 38.9136 28.0034 39.0576 27.8593C39.2016 27.7153 39.397 27.6344 39.6006 27.6344H50.7992C51.0029 27.6344 51.1983 27.7153 51.3423 27.8593C51.4863 28.0034 51.5672 28.1987 51.5672 28.4024V39.6006C51.5672 39.8043 51.4863 39.9996 51.3423 40.1437C51.1983 40.2877 51.0029 40.3686 50.7992 40.3686ZM40.3686 38.8326H50.0312V29.1704H40.3686V38.8326Z" fill="#F20587"/>
<path d="M28.3993 51.5672H17.2007C16.9971 51.5672 16.8017 51.4863 16.6577 51.3423C16.5137 51.1983 16.4327 51.0029 16.4327 50.7992V39.6006C16.4327 39.397 16.5137 39.2016 16.6577 39.0576C16.8017 38.9136 16.9971 38.8326 17.2007 38.8326H28.3993C28.603 38.8326 28.7984 38.9136 28.9424 39.0576C29.0864 39.2016 29.1673 39.397 29.1673 39.6006V50.7992C29.1673 51.0029 29.0864 51.1983 28.9424 51.3423C28.7984 51.4863 28.603 51.5672 28.3993 51.5672ZM17.9687 50.0312H27.6313V40.3686H17.9687V50.0312Z" fill="#F20587"/>
<path d="M39.5995 51.5672H28.4006C28.1969 51.5672 28.0015 51.4863 27.8575 51.3423C27.7135 51.1983 27.6326 51.0029 27.6326 50.7992V39.6006C27.6326 39.397 27.7135 39.2016 27.8575 39.0576C28.0015 38.9136 28.1969 38.8326 28.4006 38.8326H39.5995C39.8032 38.8326 39.9986 38.9136 40.1426 39.0576C40.2866 39.2016 40.3675 39.397 40.3675 39.6006V50.7992C40.3675 51.0029 40.2866 51.1983 40.1426 51.3423C39.9986 51.4863 39.8032 51.5672 39.5995 51.5672ZM29.1686 50.0312H38.8315V40.3686H29.1686V50.0312Z" fill="#F20587"/>
<path d="M50.7992 51.5672H39.6006C39.397 51.5672 39.2016 51.4863 39.0576 51.3423C38.9136 51.1983 38.8326 51.0029 38.8326 50.7992V39.6006C38.8326 39.397 38.9136 39.2016 39.0576 39.0576C39.2016 38.9136 39.397 38.8326 39.6006 38.8326H50.7992C51.0029 38.8326 51.1983 38.9136 51.3423 39.0576C51.4863 39.2016 51.5672 39.397 51.5672 39.6006V50.7992C51.5672 51.0029 51.4863 51.1983 51.3423 51.3423C51.1983 51.4863 51.0029 51.5672 50.7992 51.5672ZM40.3686 50.0312H50.0312V40.3686H40.3686V50.0312Z" fill="#F20587"/>
<path d="M17.4042 51.54L16.9972 50.0585C17.1508 50.0159 32.5964 45.623 33.2331 33.9597C33.9304 21.1883 49.9152 16.6475 50.5953 16.4601L51.0031 17.9412C50.8472 17.9842 35.4035 22.3802 34.7668 34.0434C34.0695 46.8149 18.0847 51.3526 17.4042 51.54Z" fill="#F20587"/>
<rect x="21" y="66" width="24" height="2" fill="#F20587"/>
</svg>
