<svg width="1518" height="802" viewBox="0 0 1518 802" fill="none" xmlns="http://www.w3.org/2000/svg">
<mask id="mask0_648_1292" style="mask-type:alpha" maskUnits="userSpaceOnUse" x="0" y="-206" width="1518" height="1008">
<ellipse cx="759" cy="298" rx="759" ry="504" fill="url(#paint0_radial_648_1292)"/>
</mask>
<g mask="url(#mask0_648_1292)">
<g opacity="0.5">
<line x1="-201" y1="72.5" x2="1719" y2="72.5" stroke="#F20587"/>
<line x1="-201" y1="152.5" x2="1719" y2="152.5" stroke="#F20587"/>
<line x1="-201" y1="232.5" x2="1719" y2="232.5" stroke="#F20587"/>
<line x1="-201" y1="312.5" x2="1719" y2="312.5" stroke="#F20587"/>
<line x1="-201" y1="392.5" x2="1719" y2="392.5" stroke="#F20587"/>
<line x1="-201" y1="472.5" x2="1719" y2="472.5" stroke="#F20587"/>
<line x1="-201" y1="552.5" x2="1719" y2="552.5" stroke="#F20587"/>
<line x1="-201" y1="632.5" x2="1719" y2="632.5" stroke="#F20587"/>
<line x1="-201" y1="712.5" x2="1719" y2="712.5" stroke="#F20587"/>
<line x1="-201" y1="792.5" x2="1719" y2="792.5" stroke="#F20587"/>
</g>
<g opacity="0.5">
<line x1="37.5" y1="1269" x2="37.4999" y2="-163" stroke="#F20587"/>
<line x1="117.5" y1="1269" x2="117.5" y2="-163" stroke="#F20587"/>
<line x1="197.5" y1="1269" x2="197.5" y2="-163" stroke="#F20587"/>
<line x1="277.5" y1="1269" x2="277.5" y2="-163" stroke="#F20587"/>
<line x1="357.5" y1="1269" x2="357.5" y2="-163" stroke="#F20587"/>
<line x1="437.5" y1="1269" x2="437.5" y2="-163" stroke="#F20587"/>
<line x1="517.5" y1="1269" x2="517.5" y2="-163" stroke="#F20587"/>
<line x1="597.5" y1="1269" x2="597.5" y2="-163" stroke="#F20587"/>
<line x1="677.5" y1="1269" x2="677.5" y2="-163" stroke="#F20587"/>
<line x1="757.5" y1="1269" x2="757.5" y2="-163" stroke="#F20587"/>
<line x1="837.5" y1="1269" x2="837.5" y2="-163" stroke="#F20587"/>
<line x1="917.5" y1="1269" x2="917.5" y2="-163" stroke="#F20587"/>
<line x1="997.5" y1="1269" x2="997.5" y2="-163" stroke="#F20587"/>
<line x1="1077.5" y1="1269" x2="1077.5" y2="-163" stroke="#F20587"/>
<line x1="1157.5" y1="1269" x2="1157.5" y2="-163" stroke="#F20587"/>
<line x1="1237.5" y1="1269" x2="1237.5" y2="-163" stroke="#F20587"/>
<line x1="1317.5" y1="1269" x2="1317.5" y2="-163" stroke="#F20587"/>
<line x1="1397.5" y1="1269" x2="1397.5" y2="-163" stroke="#F20587"/>
<line x1="1477.5" y1="1269" x2="1477.5" y2="-163" stroke="#F20587"/>
</g>
</g>
<defs>
<radialGradient id="paint0_radial_648_1292" cx="0" cy="0" r="1" gradientUnits="userSpaceOnUse" gradientTransform="translate(759 298) rotate(90) scale(504 759)">
<stop stop-color="#737373"/>
<stop offset="1" stop-color="#D9D9D9" stop-opacity="0"/>
</radialGradient>
</defs>
</svg>
