<svg width="1920" height="1269" viewBox="0 0 1920 1269" fill="none" xmlns="http://www.w3.org/2000/svg">
<g opacity="0.5">
<g opacity="0.15" filter="url(#filter0_f_888_1289)">
<ellipse cx="209.629" cy="421.439" rx="209.629" ry="421.439" transform="matrix(-0.0133581 0.999911 -0.999382 -0.035158 1901.96 -25.3662)" fill="#F20587"/>
</g>
<g opacity="0.15" filter="url(#filter1_f_888_1289)">
<ellipse cx="209.629" cy="421.439" rx="209.629" ry="421.439" transform="matrix(-0.0133581 0.999911 -0.999382 -0.035158 841.957 -163.366)" fill="#F20587" fill-opacity="0.51"/>
</g>
<mask id="mask0_888_1289" style="mask-type:alpha" maskUnits="userSpaceOnUse" x="201" y="-206" width="1518" height="1008">
<ellipse cx="960" cy="298" rx="759" ry="504" fill="url(#paint0_radial_888_1289)"/>
</mask>
<g mask="url(#mask0_888_1289)">
<g opacity="0.5">
<line y1="72.5" x2="1920" y2="72.5" stroke="#F20587"/>
<line y1="152.5" x2="1920" y2="152.5" stroke="#F20587"/>
<line y1="232.5" x2="1920" y2="232.5" stroke="#F20587"/>
<line y1="312.5" x2="1920" y2="312.5" stroke="#F20587"/>
<line y1="392.5" x2="1920" y2="392.5" stroke="#F20587"/>
<line y1="472.5" x2="1920" y2="472.5" stroke="#F20587"/>
<line y1="552.5" x2="1920" y2="552.5" stroke="#F20587"/>
<line y1="632.5" x2="1920" y2="632.5" stroke="#F20587"/>
<line y1="712.5" x2="1920" y2="712.5" stroke="#F20587"/>
<line y1="792.5" x2="1920" y2="792.5" stroke="#F20587"/>
</g>
<g opacity="0.5">
<line x1="238.5" y1="1269" x2="238.5" y2="-163" stroke="#F20587"/>
<line x1="318.5" y1="1269" x2="318.5" y2="-163" stroke="#F20587"/>
<line x1="398.5" y1="1269" x2="398.5" y2="-163" stroke="#F20587"/>
<line x1="478.5" y1="1269" x2="478.5" y2="-163" stroke="#F20587"/>
<line x1="558.5" y1="1269" x2="558.5" y2="-163" stroke="#F20587"/>
<line x1="638.5" y1="1269" x2="638.5" y2="-163" stroke="#F20587"/>
<line x1="718.5" y1="1269" x2="718.5" y2="-163" stroke="#F20587"/>
<line x1="798.5" y1="1269" x2="798.5" y2="-163" stroke="#F20587"/>
<line x1="878.5" y1="1269" x2="878.5" y2="-163" stroke="#F20587"/>
<line x1="958.5" y1="1269" x2="958.5" y2="-163" stroke="#F20587"/>
<line x1="1038.5" y1="1269" x2="1038.5" y2="-163" stroke="#F20587"/>
<line x1="1118.5" y1="1269" x2="1118.5" y2="-163" stroke="#F20587"/>
<line x1="1198.5" y1="1269" x2="1198.5" y2="-163" stroke="#F20587"/>
<line x1="1278.5" y1="1269" x2="1278.5" y2="-163" stroke="#F20587"/>
<line x1="1358.5" y1="1269" x2="1358.5" y2="-163" stroke="#F20587"/>
<line x1="1438.5" y1="1269" x2="1438.5" y2="-163" stroke="#F20587"/>
<line x1="1518.5" y1="1269" x2="1518.5" y2="-163" stroke="#F20587"/>
<line x1="1598.5" y1="1269" x2="1598.5" y2="-163" stroke="#F20587"/>
<line x1="1678.5" y1="1269" x2="1678.5" y2="-163" stroke="#F20587"/>
</g>
</g>
</g>
<defs>
<filter id="filter0_f_888_1289" x="856.791" y="-240.715" width="1242.38" height="820.285" filterUnits="userSpaceOnUse" color-interpolation-filters="sRGB">
<feFlood flood-opacity="0" result="BackgroundImageFix"/>
<feBlend mode="normal" in="SourceGraphic" in2="BackgroundImageFix" result="shape"/>
<feGaussianBlur stdDeviation="100" result="effect1_foregroundBlur_888_1289"/>
</filter>
<filter id="filter1_f_888_1289" x="-203.21" y="-378.715" width="1242.38" height="820.285" filterUnits="userSpaceOnUse" color-interpolation-filters="sRGB">
<feFlood flood-opacity="0" result="BackgroundImageFix"/>
<feBlend mode="normal" in="SourceGraphic" in2="BackgroundImageFix" result="shape"/>
<feGaussianBlur stdDeviation="100" result="effect1_foregroundBlur_888_1289"/>
</filter>
<radialGradient id="paint0_radial_888_1289" cx="0" cy="0" r="1" gradientUnits="userSpaceOnUse" gradientTransform="translate(960 298) rotate(90) scale(504 759)">
<stop stop-color="#737373"/>
<stop offset="1" stop-color="#D9D9D9" stop-opacity="0"/>
</radialGradient>
</defs>
</svg>