<svg width="68" height="68" viewBox="0 0 68 68" fill="none" xmlns="http://www.w3.org/2000/svg">
<rect width="68" height="68" rx="8" fill="#F20587" fill-opacity="0.12"/>
<path d="M18.4073 22.0349L31.4314 14.5152L32.1996 15.8457L19.1755 23.3654L18.4073 22.0349Z" fill="#F20587"/>
<path d="M35.7931 15.8447L36.5613 14.5142L49.592 22.0377L48.8238 23.3682L35.7931 15.8447Z" fill="#F20587"/>
<path d="M50.6184 26.476H52.1544V41.5192H50.6184V26.476Z" fill="#F20587"/>
<path d="M35.7958 52.1453L48.8252 44.6225L49.5934 45.953L36.564 53.4758L35.7958 52.1453Z" fill="#F20587"/>
<path d="M18.4064 45.9586L19.1746 44.6281L32.204 52.1509L31.4358 53.4814L18.4064 45.9586Z" fill="#F20587"/>
<path d="M15.8456 26.476H17.3816V41.5192H15.8456V26.476Z" fill="#F20587"/>
<path d="M18.4078 25.8826L19.176 24.5521L32.2018 32.0727L31.4336 33.4032L18.4078 25.8826Z" fill="#F20587"/>
<path d="M33.9958 37.2798C33.3461 37.2799 32.711 37.0873 32.1708 36.7264C31.6306 36.3655 31.2095 35.8525 30.9608 35.2523C30.7122 34.6521 30.6471 33.9917 30.7738 33.3545C30.9005 32.7173 31.2133 32.132 31.6726 31.6725C32.132 31.2131 32.7173 30.9002 33.3545 30.7735C33.9917 30.6467 34.6521 30.7117 35.2524 30.9603C35.8526 31.2089 36.3656 31.6299 36.7266 32.1701C37.0875 32.7103 37.2802 33.3454 37.2802 33.9951C37.2793 34.8659 36.9329 35.7008 36.3172 36.3166C35.7015 36.9324 34.8666 37.2788 33.9958 37.2798ZM33.9958 32.2467C33.6499 32.2466 33.3118 32.3491 33.0241 32.5413C32.7365 32.7334 32.5123 33.0065 32.3799 33.3261C32.2475 33.6456 32.2128 33.9973 32.2803 34.3365C32.3477 34.6758 32.5143 34.9874 32.7589 35.232C33.0035 35.4766 33.3151 35.6431 33.6544 35.7106C33.9936 35.7781 34.3453 35.7434 34.6648 35.611C34.9844 35.4786 35.2575 35.2544 35.4496 34.9668C35.6417 34.6791 35.7442 34.341 35.7442 33.9951C35.7436 33.5316 35.5592 33.0872 35.2314 32.7595C34.9037 32.4317 34.4593 32.2473 33.9958 32.2467Z" fill="#F20587"/>
<path d="M16.6136 27.2439C15.964 27.2439 15.329 27.0513 14.7889 26.6904C14.2488 26.3295 13.8278 25.8165 13.5792 25.2164C13.3306 24.6163 13.2656 23.9559 13.3923 23.3188C13.5191 22.6817 13.8319 22.0965 14.2912 21.6371C14.7505 21.1778 15.3357 20.865 15.9728 20.7383C16.6099 20.6116 17.2703 20.6766 17.8704 20.9252C18.4706 21.1738 18.9835 21.5947 19.3444 22.1348C19.7053 22.6749 19.8979 23.3099 19.8979 23.9595C19.8969 24.8303 19.5506 25.6651 18.9348 26.2808C18.3191 26.8965 17.4843 27.2429 16.6136 27.2439ZM16.6136 22.2112C16.2678 22.2112 15.9298 22.3137 15.6422 22.5058C15.3547 22.6979 15.1306 22.971 14.9983 23.2905C14.866 23.6099 14.8314 23.9615 14.8988 24.3006C14.9663 24.6398 15.1328 24.9513 15.3773 25.1958C15.6218 25.4403 15.9333 25.6068 16.2725 25.6743C16.6116 25.7417 16.9632 25.7071 17.2826 25.5748C17.6021 25.4425 17.8752 25.2184 18.0673 24.9309C18.2594 24.6433 18.3619 24.3053 18.3619 23.9595C18.3614 23.496 18.1771 23.0516 17.8493 22.7238C17.5215 22.396 17.0771 22.2117 16.6136 22.2112Z" fill="#F20587"/>
<path d="M16.6136 47.3202C15.9639 47.3203 15.3288 47.1277 14.7886 46.7668C14.2483 46.4059 13.8273 45.8929 13.5786 45.2927C13.3299 44.6924 13.2649 44.032 13.3916 43.3947C13.5183 42.7575 13.8312 42.1722 14.2906 41.7128C14.75 41.2534 15.3353 40.9406 15.9725 40.8138C16.6097 40.6871 17.2702 40.7522 17.8704 41.0008C18.4706 41.2495 18.9836 41.6706 19.3445 42.2108C19.7055 42.751 19.898 43.3862 19.898 44.0359C19.8971 44.9066 19.5507 45.7415 18.935 46.3572C18.3193 46.973 17.4844 47.3193 16.6136 47.3202ZM16.6136 42.2871C16.2677 42.287 15.9296 42.3895 15.642 42.5816C15.3543 42.7738 15.1301 43.0468 14.9977 43.3664C14.8653 43.6859 14.8306 44.0375 14.898 44.3768C14.9655 44.716 15.132 45.0277 15.3765 45.2723C15.6211 45.5169 15.9327 45.6835 16.2719 45.751C16.6112 45.8185 16.9628 45.7839 17.2824 45.6515C17.6019 45.5192 17.8751 45.295 18.0672 45.0074C18.2594 44.7199 18.362 44.3817 18.362 44.0359C18.3615 43.5723 18.1771 43.1278 17.8493 42.8C17.5216 42.4722 17.0772 42.2877 16.6136 42.2871Z" fill="#F20587"/>
<path d="M33.9999 57.3561C33.3503 57.3561 32.7152 57.1634 32.175 56.8025C31.6348 56.4415 31.2138 55.9285 30.9652 55.3283C30.7166 54.7281 30.6516 54.0676 30.7784 53.4304C30.9051 52.7932 31.218 52.2079 31.6774 51.7486C32.1368 51.2892 32.7222 50.9764 33.3594 50.8497C33.9966 50.723 34.657 50.7881 35.2572 51.0368C35.8574 51.2854 36.3704 51.7065 36.7313 52.2467C37.0922 52.787 37.2848 53.4221 37.2847 54.0717C37.2836 54.9425 36.9371 55.7773 36.3214 56.393C35.7056 57.0087 34.8707 57.3551 33.9999 57.3561ZM33.9999 52.323C33.6541 52.323 33.316 52.4256 33.0284 52.6177C32.7408 52.8099 32.5167 53.083 32.3843 53.4025C32.252 53.7221 32.2173 54.0737 32.2848 54.4129C32.3523 54.7521 32.5188 55.0637 32.7634 55.3083C33.008 55.5529 33.3196 55.7194 33.6588 55.7869C33.998 55.8544 34.3496 55.8197 34.6692 55.6874C34.9887 55.555 35.2618 55.3309 35.454 55.0433C35.6461 54.7557 35.7487 54.4176 35.7487 54.0717C35.7482 53.6081 35.5638 53.1636 35.2359 52.8358C34.9081 52.5079 34.4636 52.3235 33.9999 52.323Z" fill="#F20587"/>
<path d="M51.3864 47.3202C50.7367 47.3202 50.1017 47.1276 49.5615 46.7666C49.0213 46.4057 48.6003 45.8926 48.3517 45.2924C48.1031 44.6922 48.0381 44.0317 48.1648 43.3945C48.2916 42.7573 48.6045 42.172 49.0639 41.7127C49.5233 41.2533 50.1086 40.9405 50.7458 40.8138C51.383 40.6871 52.0435 40.7522 52.6437 41.0009C53.2439 41.2496 53.7569 41.6706 54.1178 42.2108C54.4787 42.7511 54.6712 43.3862 54.6712 44.0359C54.6702 44.9067 54.3239 45.7416 53.708 46.3574C53.0922 46.9731 52.2573 47.3194 51.3864 47.3202ZM51.3864 42.2871C51.0406 42.2871 50.7025 42.3897 50.4149 42.5818C50.1273 42.774 49.9032 43.0471 49.7708 43.3666C49.6384 43.6862 49.6038 44.0378 49.6713 44.377C49.7388 44.7162 49.9053 45.0278 50.1499 45.2724C50.3944 45.517 50.706 45.6835 51.0453 45.751C51.3845 45.8185 51.7361 45.7838 52.0556 45.6515C52.3752 45.5191 52.6483 45.295 52.8404 45.0074C53.0326 44.7198 53.1352 44.3817 53.1352 44.0359C53.1347 43.5722 52.9502 43.1277 52.6224 42.7999C52.2946 42.472 51.8501 42.2876 51.3864 42.2871Z" fill="#F20587"/>
<path d="M33.9958 17.213C33.3461 17.2131 32.711 17.0205 32.1708 16.6596C31.6306 16.2988 31.2095 15.7858 30.9608 15.1856C30.7122 14.5854 30.6471 13.9249 30.7738 13.2877C30.9005 12.6505 31.2133 12.0652 31.6726 11.6058C32.132 11.1464 32.7173 10.8335 33.3545 10.7067C33.9917 10.5799 34.6521 10.645 35.2524 10.8936C35.8526 11.1422 36.3656 11.5632 36.7266 12.1034C37.0875 12.6435 37.2802 13.2786 37.2802 13.9283C37.2793 14.7991 36.9329 15.634 36.3172 16.2498C35.7015 16.8656 34.8666 17.212 33.9958 17.213ZM33.9958 12.1799C33.6499 12.1799 33.3118 12.2824 33.0241 12.4745C32.7365 12.6666 32.5123 12.9397 32.3799 13.2593C32.2475 13.5788 32.2128 13.9305 32.2803 14.2697C32.3477 14.609 32.5143 14.9206 32.7589 15.1652C33.0035 15.4098 33.3151 15.5764 33.6544 15.6438C33.9936 15.7113 34.3453 15.6766 34.6648 15.5442C34.9844 15.4118 35.2575 15.1876 35.4496 14.9C35.6417 14.6123 35.7442 14.2742 35.7442 13.9283C35.7436 13.4648 35.5592 13.0204 35.2314 12.6927C34.9037 12.3649 34.4593 12.1805 33.9958 12.1799Z" fill="#F20587"/>
<path d="M51.3864 27.2439C50.7368 27.2438 50.1019 27.0511 49.5618 26.6902C49.0217 26.3292 48.6008 25.8163 48.3523 25.2161C48.1038 24.616 48.0388 23.9556 48.1656 23.3185C48.2923 22.6815 48.6052 22.0963 49.0645 21.637C49.5239 21.1777 50.1091 20.8649 50.7462 20.7383C51.3833 20.6116 52.0436 20.6766 52.6437 20.9252C53.2438 21.1738 53.7568 21.5948 54.1176 22.1349C54.4785 22.675 54.6711 23.31 54.6711 23.9595C54.6701 24.8303 54.3237 25.6652 53.7079 26.2809C53.0921 26.8967 52.2572 27.243 51.3864 27.2439ZM51.3864 22.2112C51.0406 22.2112 50.7026 22.3139 50.4152 22.506C50.1277 22.6982 49.9037 22.9712 49.7714 23.2907C49.6391 23.6102 49.6046 23.9617 49.6721 24.3008C49.7396 24.64 49.9061 24.9515 50.1506 25.1959C50.3952 25.4404 50.7067 25.6069 51.0458 25.6743C51.385 25.7417 51.7365 25.7071 52.0559 25.5748C52.3754 25.4424 52.6484 25.2183 52.8405 24.9308C53.0326 24.6433 53.1351 24.3053 53.1351 23.9595C53.1346 23.4959 52.9502 23.0515 52.6223 22.7237C52.2945 22.3959 51.85 22.2116 51.3864 22.2112Z" fill="#F20587"/>
<path d="M33.2278 36.5117H34.7638V51.5549H33.2278V36.5117Z" fill="#F20587"/>
<path d="M35.791 32.0721L48.8231 24.5479L49.5913 25.8784L36.5592 33.4027L35.791 32.0721Z" fill="#F20587"/>
<path d="M46.8024 42.2762L47.5706 40.9457L49.5658 42.0977L48.7976 43.4282L46.8024 42.2762Z" fill="#F20587"/>
<path d="M40.7938 38.8076L41.562 37.4771L44.5666 39.2118L43.7984 40.5423L40.7938 38.8076Z" fill="#F20587"/>
<path d="M35.7941 35.9215L36.5623 34.591L38.5575 35.743L37.7893 37.0735L35.7941 35.9215Z" fill="#F20587"/>
<path d="M33.2278 16.4451H34.7638V18.7491H33.2278V16.4451Z" fill="#F20587"/>
<path d="M33.2278 22.2242H34.7638V25.6994H33.2278V22.2242Z" fill="#F20587"/>
<path d="M33.2278 29.1747H34.7638V31.4787H33.2278V29.1747Z" fill="#F20587"/>
<path d="M18.3983 42.121L20.3936 40.969L21.1614 42.2988L19.1661 43.4508L18.3983 42.121Z" fill="#F20587"/>
<path d="M23.4066 39.2299L26.4185 37.4909L27.1863 38.8208L24.1744 40.5597L23.4066 39.2299Z" fill="#F20587"/>
<path d="M29.4323 35.7521L31.4275 34.6001L32.1953 35.9299L30.2001 37.0819L29.4323 35.7521Z" fill="#F20587"/>
<rect x="21" y="66" width="24" height="2" fill="#F20587"/>
</svg>
