<?xml version="1.0" encoding="UTF-8"?>
<svg id="Camada_2" data-name="Camada 2" xmlns="http://www.w3.org/2000/svg" viewBox="0 0 2499.62 587.18">
  <defs>
    <style>
      .cls-1 {
        fill: #2a2e30;
      }
    </style>
  </defs>
  <g id="Camada_1-2" data-name="Camada 1">
    <g>
      <g>
        <path class="cls-1" d="M716.71,176.26c0,100.38-81.02,177.24-188.04,177.24s-188.04-76.37-188.04-177.24S421.65,0,528.67,0s188.04,75.9,188.04,176.26ZM421.65,176.26c0,61.7,49.51,109.68,108.02,109.68s106.02-47.98,106.02-109.68-47.51-108.69-106.02-108.69-108.02,47.49-108.02,108.69Z"/>
        <path class="cls-1" d="M1085.85,5.39v342.74h-72.01l-169.54-220.33v220.33h-75.52V5.39h72.01l170.04,221.31V5.39h75.02Z"/>
        <path class="cls-1" d="M2176.76,176.26c0,100.38-81.01,177.24-188.04,177.24s-188.04-76.37-188.04-177.24S1881.7,0,1988.72,0s188.04,75.9,188.04,176.26ZM1881.7,176.26c0,61.7,49.51,109.68,108.02,109.68s106.02-47.98,106.02-109.68-47.5-108.69-106.02-108.69-108.02,47.49-108.02,108.69Z"/>
      </g>
      <g>
        <path class="cls-1" d="M127.76,85.31c16.91-11.26,37.4-17.74,59.78-17.74,32.51,0,67.02,17.13,91.02,45.05l46.01-55.33C290.07,22.03,237.05,0,186.54,0S92.56,16.95,59.7,45.16l68.06,40.16Z"/>
        <path class="cls-1" d="M81.02,174.81c0-19.29,4.72-37.12,13.05-52.51L26.99,82.72C9.88,109.44,0,141.11,0,175.79c0,36.81,10.62,70.37,29.08,98.21l68.55-40.44c-10.51-16.83-16.61-36.91-16.61-58.75Z"/>
        <path class="cls-1" d="M278.56,242.37c-25,24.98-59.51,40.64-91.02,40.64-19.64,0-37.79-5.17-53.39-14.14l-71.68,42.29c31.88,26.53,73.82,42.35,121.07,42.35,51.01,0,104.52-23.98,141.53-61.69l-46.51-49.45Z"/>
      </g>
      <g>
        <rect class="cls-1" x="1128.43" y="5.39" width="292.56" height="64.14"/>
        <rect class="cls-1" x="1234.95" y="118.51" width="79.01" height="229.62"/>
      </g>
      <path class="cls-1" d="M1693.6,235.03c42.51-19.58,65.52-57.78,65.52-110.66,0-75.88-52.01-118.97-143.54-118.97h-152.04v342.74h79.02V69.54h73.01c43.51,0,68.52,19.09,68.52,57.28s-25.01,58.76-68.52,58.76h-24.04v64.62h31.54l55.51,97.93h89.52l-74.52-113.1Z"/>
      <g>
        <polygon class="cls-1" points="2315.86 232.94 2315.86 4.01 2236.74 4.01 2236.74 232.67 2315.86 232.94"/>
        <polygon class="cls-1" points="2236.74 281.64 2236.74 349.5 2466.11 349.5 2466.11 282.42 2236.74 281.64"/>
      </g>
      <g>
        <rect class="cls-1" y="448.17" width="2302.07" height="66.63"/>
        <path class="cls-1" d="M2393.93,375.79c-58.37,0-105.69,47.32-105.69,105.69s47.32,105.69,105.69,105.69,105.69-47.32,105.69-105.69-47.32-105.69-105.69-105.69ZM2393.93,543.49c-34.24,0-62-27.76-62-62s27.76-62,62-62,62,27.76,62,62-27.76,62-62,62Z"/>
      </g>
    </g>
  </g>
</svg>