<svg width="419" height="432" viewBox="0 0 419 432" fill="none" xmlns="http://www.w3.org/2000/svg">
<path d="M221.772 381.044C395.288 313.403 413.397 199.629 302.133 60.4599C299.816 57.5618 302.242 53.3348 305.85 54.1981C373.952 70.4909 418.772 129.274 418.772 202.544C418.772 308.857 346.871 357.205 221.772 381.044Z" fill="#01A4F3"/>
<path d="M46.5669 135.544C-1.26587 315.53 79.8779 397.311 257.892 389.657C261.599 389.498 263.579 393.951 260.752 396.354C207.399 441.705 133.493 443.182 74.3514 399.929C-11.4608 337.169 -8.03962 250.592 46.5669 135.544Z" fill="#FF017E"/>
<path d="M335.923 127.127C206.285 -6.57742 94.3921 20.8521 9.26287 177.379C7.49014 180.639 2.65311 180.042 2.04947 176.381C-9.3426 107.291 27.4584 43.1811 94.9947 14.7667C192.988 -26.4617 265.436 21.0639 335.923 127.127Z" fill="#AEF708"/>
<path d="M336.273 216.544C336.273 292.207 274.936 353.544 199.273 353.544C123.61 353.544 62.2726 292.207 62.2726 216.544C62.2726 140.881 123.61 79.544 199.273 79.544C274.936 79.544 336.273 140.881 336.273 216.544Z" fill="#FFD102"/>
</svg>
