<svg width="181" height="33" viewBox="0 0 181 33" fill="none" xmlns="http://www.w3.org/2000/svg">
<path d="M37.3339 32.2644V17.0053C37.3339 15.3334 36.903 14.05 36.0412 13.1552C35.1794 12.2839 33.9682 11.8483 32.4076 11.8483C30.8237 11.8483 29.6009 12.2839 28.7391 13.1552C27.8773 14.05 27.4464 15.3334 27.4464 17.0053V32.2644H22.5201V17.0406C22.5201 14.9448 22.9743 13.1669 23.8827 11.707C24.7678 10.2705 25.9673 9.18733 27.4813 8.45734C28.972 7.72735 30.6374 7.36236 32.4775 7.36236C34.2943 7.36236 35.948 7.72735 37.4387 8.45734C38.9061 9.18733 40.0707 10.2705 40.9325 11.707C41.7943 13.1669 42.2252 14.9448 42.2252 17.0406V32.2644H37.3339Z" fill="black"/>
<path d="M141.489 31.3982V16.2718C141.489 14.6144 141.058 13.3422 140.197 12.4551C139.335 11.5914 138.124 11.1596 136.563 11.1596C134.979 11.1596 133.756 11.5914 132.895 12.4551C132.033 13.3422 131.602 14.6144 131.602 16.2718V31.3982H126.676V16.3068C126.676 14.2292 127.13 12.4668 128.038 11.0195C128.923 9.59558 130.123 8.52179 131.637 7.79815C133.128 7.07451 134.793 6.71269 136.633 6.71269C138.45 6.71269 140.104 7.07451 141.594 7.79815C143.062 8.52179 144.226 9.59558 145.088 11.0195C145.95 12.4668 146.381 14.2292 146.381 16.3068V31.3982H141.489Z" fill="black"/>
<path d="M14.8137 7.79535V23.0545C14.8137 24.7264 14.3828 26.0098 13.521 26.9046C12.6592 27.7759 11.448 28.2115 9.88747 28.2115C8.30361 28.2115 7.08077 27.7759 6.21896 26.9046C5.35716 26.0098 4.92625 24.7264 4.92625 23.0545V7.79535H-2.09808e-05V23.0192C-2.09808e-05 25.1149 0.454174 26.8928 1.36257 28.3528C2.24766 29.7892 3.44721 30.8724 4.96119 31.6024C6.45188 32.3324 8.11727 32.6974 9.95734 32.6974C11.7741 32.6974 13.4279 32.3324 14.9186 31.6024C16.386 30.8724 17.5506 29.7892 18.4124 28.3528C19.2742 26.8928 19.7051 25.1149 19.7051 23.0192V7.79535H14.8137Z" fill="black"/>
<path d="M44.8237 20.6482C44.8237 18.4086 45.2833 16.4254 46.2025 14.6984C47.1488 12.9715 48.4195 11.6359 50.0146 10.6914C51.6367 9.72005 53.4346 9.23436 55.4081 9.23436C56.8681 9.23436 58.301 9.55815 59.7068 10.2057C61.1397 10.8264 62.2752 11.6628 63.1133 12.7152V1.94891H67.7769V31.9002H63.1133V28.5408C62.3563 29.6201 61.3019 30.5105 59.9501 31.2121C58.6254 31.9137 57.0979 32.2645 55.3676 32.2645C53.421 32.2645 51.6367 31.7788 50.0146 30.8074C48.4195 29.809 47.1488 28.4328 46.2025 26.6789C45.2833 24.8981 44.8237 22.8878 44.8237 20.6482ZM63.1133 20.7292C63.1133 19.1911 62.7889 17.8555 62.14 16.7222C61.5182 15.5889 60.6936 14.7254 59.6662 14.1318C58.6389 13.5382 57.5304 13.2414 56.3409 13.2414C55.1513 13.2414 54.0429 13.5382 53.0155 14.1318C51.9882 14.6984 51.1501 15.5484 50.5012 16.6817C49.8794 17.788 49.5685 19.1102 49.5685 20.6482C49.5685 22.1863 49.8794 23.5354 50.5012 24.6957C51.1501 25.856 51.9882 26.7464 53.0155 27.367C54.0699 27.9606 55.1783 28.2575 56.3409 28.2575C57.5304 28.2575 58.6389 27.9606 59.6662 27.367C60.6936 26.7734 61.5182 25.9099 62.14 24.7766C62.7889 23.6164 63.1133 22.2672 63.1133 20.7292Z" fill="black"/>
<path d="M93.3285 19.1298C93.3285 20.0107 93.2717 20.8063 93.1579 21.5167H75.1939C75.3361 23.3921 76.033 24.8981 77.2847 26.0347C78.5363 27.1713 80.0724 27.7396 81.893 27.7396C84.5101 27.7396 86.3591 26.6456 87.4401 24.4576H92.6885C91.9773 26.6172 90.683 28.3932 88.8055 29.7855C86.9565 31.1494 84.6523 31.8314 81.893 31.8314C79.6457 31.8314 77.626 31.3341 75.8339 30.3396C74.0702 29.3167 72.6763 27.8959 71.6523 26.0773C70.6566 24.2303 70.1588 22.0992 70.1588 19.6839C70.1588 17.2686 70.6424 15.1516 71.6096 13.3331C72.6052 11.4861 73.9849 10.0653 75.7486 9.07078C77.5407 8.07625 79.5889 7.57898 81.893 7.57898C84.1119 7.57898 86.0889 8.06204 87.8241 9.02816C89.5594 9.99428 90.9106 11.3582 91.8778 13.12C92.845 14.8533 93.3285 16.8566 93.3285 19.1298ZM88.2508 17.5954C88.2224 15.8052 87.5823 14.3702 86.3307 13.2904C85.079 12.2107 83.5287 11.6708 81.6797 11.6708C80.0013 11.6708 78.5648 12.2107 77.37 13.2904C76.1753 14.3418 75.4641 15.7768 75.2365 17.5954H88.2508Z" fill="black"/>
<path d="M93.3285 19.1298C93.3285 20.0107 93.2717 20.8063 93.1579 21.5167H75.1939C75.3361 23.3921 76.033 24.8981 77.2847 26.0347C78.5363 27.1713 80.0724 27.7396 81.893 27.7396C84.5101 27.7396 86.3591 26.6456 87.4401 24.4576H92.6885C91.9773 26.6172 90.683 28.3932 88.8055 29.7855C86.9565 31.1494 84.6523 31.8314 81.893 31.8314C79.6457 31.8314 77.626 31.3341 75.8339 30.3396C74.0702 29.3167 72.6763 27.8959 71.6523 26.0773C70.6566 24.2303 70.1588 22.0992 70.1588 19.6839C70.1588 17.2686 70.6424 15.1516 71.6096 13.3331C72.6052 11.4861 73.9849 10.0653 75.7486 9.07078C77.5407 8.07625 79.5889 7.57898 81.893 7.57898C84.1119 7.57898 86.0889 8.06204 87.8241 9.02816C89.5594 9.99428 90.9106 11.3582 91.8778 13.12C92.845 14.8533 93.3285 16.8566 93.3285 19.1298ZM88.2508 17.5954C88.2224 15.8052 87.5823 14.3702 86.3307 13.2904C85.079 12.2107 83.5287 11.6708 81.6797 11.6708C80.0013 11.6708 78.5648 12.2107 77.37 13.2904C76.1753 14.3418 75.4641 15.7768 75.2365 17.5954H88.2508Z" fill="black"/>
<path d="M172.149 18.4801C172.149 19.361 172.092 20.1566 171.978 20.867H154.014C154.156 22.7424 154.853 24.2484 156.105 25.385C157.357 26.5216 158.893 27.0899 160.713 27.0899C163.33 27.0899 165.179 25.996 166.26 23.808H171.509C170.798 25.9675 169.503 27.7435 167.626 29.1358C165.777 30.4998 163.473 31.1817 160.713 31.1817C158.466 31.1817 156.446 30.6845 154.654 29.6899C152.891 28.667 151.497 27.2462 150.473 25.4277C149.477 23.5807 148.979 21.4495 148.979 19.0342C148.979 16.6189 149.463 14.502 150.43 12.6834C151.426 10.8364 152.805 9.41566 154.569 8.42112C156.361 7.42659 158.409 6.92932 160.713 6.92932C162.932 6.92932 164.909 7.41238 166.644 8.3785C168.38 9.34462 169.731 10.7086 170.698 12.4703C171.665 14.2036 172.149 16.2069 172.149 18.4801ZM167.071 16.9457C167.043 15.1555 166.403 13.7206 165.151 12.6408C163.899 11.561 162.349 11.0211 160.5 11.0211C158.822 11.0211 157.385 11.561 156.19 12.6408C154.996 13.6922 154.284 15.1271 154.057 16.9457H167.071Z" fill="black"/>
<path d="M115.849 13.4497V0H111.301V9.12107V31.1817H115.849V13.4497Z" fill="black"/>
<path d="M118.991 31.1817V9.16418H123.861V31.1817H118.991ZM121.154 5.76694C120.409 5.76694 119.769 5.51848 119.235 5.02156C118.71 4.51508 118.447 3.91304 118.447 3.21544C118.447 2.50828 118.71 1.90624 119.235 1.40931C119.769 0.902836 120.409 0.649597 121.154 0.649597C121.899 0.649597 122.534 0.902836 123.059 1.40931C123.593 1.90624 123.861 2.50828 123.861 3.21544C123.861 3.91304 123.593 4.51508 123.059 5.02156C122.534 5.51848 121.899 5.76694 121.154 5.76694Z" fill="black"/>
<path d="M96.2461 17.8074C96.2461 10.0365 101.777 7.46985 108.6 7.46985V12.4139C104.455 12.4139 101.094 14.584 101.094 19.3056V31.8905H96.2461V17.8074Z" fill="black"/>
<path d="M177.479 7.42555L176.382 5.52097H175.786V7.42555H175.005V2.66408H176.65C177.015 2.66408 177.323 2.72803 177.574 2.85591C177.83 2.9838 178.02 3.15507 178.143 3.36974C178.271 3.58441 178.335 3.82419 178.335 4.0891C178.335 4.39968 178.244 4.68286 178.061 4.93863C177.883 5.18983 177.606 5.36111 177.232 5.45246L178.41 7.42555H177.479ZM175.786 4.89752H176.65C176.942 4.89752 177.161 4.82444 177.307 4.67829C177.458 4.53213 177.533 4.33574 177.533 4.0891C177.533 3.84246 177.46 3.65063 177.314 3.51361C177.168 3.37202 176.946 3.30123 176.65 3.30123H175.786V4.89752Z" fill="black"/>
<path fill-rule="evenodd" clip-rule="evenodd" d="M176.547 8.79577C178.628 8.79577 180.315 7.10875 180.315 5.0277C180.315 2.94665 178.628 1.25963 176.547 1.25963C174.466 1.25963 172.779 2.94665 172.779 5.0277C172.779 7.10875 174.466 8.79577 176.547 8.79577ZM176.547 9.48087C179.006 9.48087 181 7.48712 181 5.0277C181 2.56828 179.006 0.574524 176.547 0.574524C174.087 0.574524 172.094 2.56828 172.094 5.0277C172.094 7.48712 174.087 9.48087 176.547 9.48087Z" fill="black"/>
</svg>
