<svg width="48" height="48" viewBox="0 0 48 48" fill="none" xmlns="http://www.w3.org/2000/svg">
<path d="M47.412 20.498L36.064 23.234C37.782 20.972 38.436 18.8 37.69 17.038C36.7 14.704 33.58 13.662 28.858 14.102C25.856 14.532 23.92 15.18 22.048 15.806L21.12 16.142C20.572 14.94 20.266 13.97 20.12 13.4C23.22 10.776 26 3.926 26 0H24C24 3.404 21.278 10 18.66 12H7.42C4.068 8.514 2 3.952 2 0H0C0 4.528 2.364 9.722 6.178 13.59C7.71 16.638 9.126 18.946 10.608 20.934C4.206 25.108 0.958 29.766 2.31 32.952C2.764 34.022 3.664 34.828 4.988 35.346C6.112 35.786 7.52 35.998 9.13 35.998C11.684 35.998 14.752 35.452 18.002 34.43V48H20.002V33.746C21.056 33.358 22.12 32.934 23.188 32.452C27.46 30.524 31.032 28.22 33.604 25.882L47.882 22.442L47.414 20.498H47.412ZM8.638 14H18.202C18.602 15.518 19.742 18.856 22.598 22.084C20.28 24.196 18.3 24.846 16.914 24.976C13.628 21.818 11.318 19.07 8.638 14ZM22.364 30.63C15.712 33.63 9.018 34.778 5.716 33.482C4.912 33.168 4.386 32.728 4.15 32.17C3.358 30.304 5.792 26.438 11.856 22.522C13.082 23.992 14.68 25.612 16.148 27.01C18.03 26.96 21.386 26.184 24.71 22.826L25.402 22.128L24.716 21.424C23.578 20.26 22.728 19.06 22.058 17.928L22.682 17.702C24.47 17.104 26.318 16.484 29.094 16.086C32.72 15.738 35.246 16.392 35.848 17.816C36.98 20.486 31.72 26.404 22.364 30.626V30.63ZM13 10C15.756 10 18 7.756 18 5C18 2.244 15.756 0 13 0C10.244 0 8 2.244 8 5C8 7.756 10.244 10 13 10ZM13 2C14.654 2 16 3.346 16 5C16 6.654 14.654 8 13 8C11.346 8 10 6.654 10 5C10 3.346 11.346 2 13 2Z" fill="black"/>
</svg>
