<svg width="18" height="12" viewBox="0 0 18 12" fill="none" xmlns="http://www.w3.org/2000/svg">
<path d="M7.27771 5.66504C8.60046 6.03418 9.24646 7.04932 9.24646 8.40283C9.24646 10.6177 7.40076 11.5713 5.40125 11.5713H0.140991V0.681641H5.2782C7.1239 0.681641 8.75427 1.20459 8.75427 3.38867C8.75427 4.46533 8.23132 5.17285 7.27771 5.66504ZM2.50964 2.52734V5.08057H4.93982C5.80115 5.08057 6.41638 4.71143 6.41638 3.78857C6.41638 2.77344 5.64734 2.52734 4.78601 2.52734H2.50964ZM5.09363 9.72559C6.04724 9.72559 6.84705 9.38721 6.84705 8.27979C6.84705 7.17236 6.20105 6.71094 5.12439 6.71094H2.50964V9.72559H5.09363ZM16.1063 2.31201V1.23535H11.7074V2.31201H16.1063ZM17.8597 7.75684C17.8597 7.87988 17.829 8.03369 17.829 8.15674H12.1381C12.1381 9.41797 12.8148 10.1562 14.076 10.1562C14.722 10.1562 15.5834 9.81787 15.7987 9.14111H17.7059C17.1215 10.9253 15.891 11.7866 14.0145 11.7866C11.5228 11.7866 9.95398 10.0947 9.95398 7.63379C9.95398 5.26514 11.5844 3.4502 14.0145 3.4502C16.4755 3.4502 17.8597 5.41895 17.8597 7.75684ZM12.1381 6.77246H15.6757C15.5834 5.72656 15.0297 5.11133 13.9222 5.11133C12.9071 5.11133 12.1996 5.75732 12.1381 6.77246Z" fill="white"/>
</svg>
