<svg width="16" height="16" viewBox="0 0 16 16" fill="none" xmlns="http://www.w3.org/2000/svg">
<g clip-path="url(#clip0_665_1671)">
<path fill-rule="evenodd" clip-rule="evenodd" d="M8.00285 1.00391C11.8682 1.00391 15.0029 4.13861 15.0029 8.00395C15.0029 11.8693 11.8682 15.004 8.00285 15.004C4.13751 15.004 1.00281 11.8693 1.00281 8.00395C1.00281 4.13861 4.13751 1.00391 8.00285 1.00391ZM6.5492 10.2776L4.83542 8.56242C4.54345 8.27027 4.54339 7.79387 4.83542 7.50179C5.12751 7.20976 5.60603 7.21159 5.896 7.50179L7.1042 8.71094L10.1098 5.70533C10.4019 5.41324 10.8784 5.41324 11.1704 5.70533C11.4625 5.99736 11.4621 6.47423 11.1704 6.76591L7.63363 10.3027C7.34196 10.5943 6.86509 10.5947 6.57306 10.3027C6.56485 10.2945 6.55694 10.2861 6.5492 10.2776Z" fill="#F20587"/>
</g>
<defs>
<clipPath id="clip0_665_1671">
<rect width="16" height="16" fill="white"/>
</clipPath>
</defs>
</svg>

