<svg width="48" height="48" viewBox="0 0 48 48" fill="none" xmlns="http://www.w3.org/2000/svg">
<g clip-path="url(#clip0_88_5722)">
<path d="M26.2432 21.7501C26.0858 21.7501 25.9324 21.7005 25.8047 21.6085C25.677 21.5165 25.5815 21.3866 25.5317 21.2372C25.4819 21.0879 25.4804 20.9267 25.5273 20.7764C25.5743 20.6262 25.6673 20.4945 25.7932 20.4001C27.9065 18.8201 29.3464 16.5015 29.8258 13.9068C30.3051 11.3121 29.7886 8.63203 28.3792 6.40132C28.3236 6.31815 28.2853 6.2247 28.2663 6.12648C28.2474 6.02825 28.2483 5.92723 28.2691 5.82937C28.2898 5.73151 28.3298 5.63877 28.3869 5.55663C28.444 5.47448 28.5169 5.40459 28.6014 5.35106C28.6859 5.29752 28.7803 5.26144 28.879 5.24492C28.9776 5.2284 29.0786 5.23178 29.1759 5.25487C29.2732 5.27795 29.365 5.32028 29.4457 5.37935C29.5264 5.43842 29.5945 5.51304 29.646 5.59882C31.2572 8.14826 31.8482 11.2114 31.3009 14.1773C30.7536 17.1431 29.1083 19.7936 26.6932 21.6001C26.5634 21.6974 26.4055 21.7501 26.2432 21.7501Z" fill="white"/>
<path d="M15 23.0609C14.8967 23.0609 14.7946 23.0395 14.7 22.9979C13.1058 22.3049 11.6813 21.2738 10.5249 19.9759C9.36847 18.6781 8.50784 17.1445 8.00252 15.4813C7.49721 13.818 7.35928 12.0649 7.59827 10.3431C7.83727 8.62128 8.44748 6.97197 9.38669 5.50925C10.3259 4.04652 11.5717 2.80531 13.0379 1.87149C14.504 0.93767 16.1556 0.333535 17.8783 0.100883C19.6009 -0.131768 21.3536 0.012619 23.0149 0.524055C24.6763 1.03549 26.2067 1.90177 27.5003 3.06294C27.5769 3.1277 27.6397 3.20716 27.6851 3.29663C27.7304 3.3861 27.7574 3.48376 27.7643 3.58383C27.7713 3.68391 27.7581 3.78435 27.7255 3.87923C27.6929 3.97411 27.6417 4.06149 27.5747 4.1362C27.5078 4.21091 27.4265 4.27144 27.3358 4.3142C27.2451 4.35695 27.1467 4.38107 27.0464 4.38513C26.9462 4.38918 26.8462 4.37309 26.7523 4.3378C26.6584 4.30252 26.5725 4.24875 26.4998 4.17969C25.3678 3.16407 24.0286 2.40648 22.575 1.95933C21.1214 1.51217 19.588 1.38612 18.0809 1.58989C16.5738 1.79366 15.1289 2.3224 13.8463 3.13952C12.5636 3.95665 11.4738 5.04265 10.6521 6.32242C9.83046 7.60219 9.29662 9.04517 9.08752 10.5516C8.87842 12.0579 8.99905 13.5918 9.44107 15.047C9.88308 16.5021 10.6359 17.8439 11.6475 18.9795C12.6592 20.1151 13.9054 21.0174 15.3 21.6239C15.4577 21.693 15.5868 21.8142 15.6657 21.9672C15.7446 22.1202 15.7685 22.2957 15.7333 22.4642C15.6981 22.6327 15.606 22.784 15.4725 22.8927C15.339 23.0013 15.1722 23.0607 15 23.0609Z" fill="white"/>
<path d="M24 19.6621C23.8384 19.6622 23.6811 19.6101 23.5515 19.5136C23.4219 19.4171 23.3269 19.2813 23.2807 19.1265C23.2345 18.9716 23.2396 18.806 23.2951 18.6542C23.3507 18.5025 23.4538 18.3727 23.589 18.2843C24.9444 17.4026 25.9785 16.1065 26.5372 14.5892C27.096 13.0719 27.1494 11.4147 26.6896 9.86457C26.2297 8.31443 25.2813 6.95441 23.9855 5.98723C22.6898 5.02005 21.1162 4.49752 19.4993 4.49752C17.8824 4.49752 16.3088 5.02005 15.013 5.98723C13.7173 6.95441 12.7688 8.31443 12.309 9.86457C11.8491 11.4147 11.9026 13.0719 12.4613 14.5892C13.02 16.1065 14.0542 17.4026 15.4095 18.2843C15.5728 18.3945 15.6861 18.5645 15.7251 18.7576C15.7641 18.9507 15.7255 19.1514 15.6177 19.3163C15.51 19.4811 15.3417 19.597 15.1492 19.6389C14.9567 19.6807 14.7555 19.6451 14.589 19.5398C12.9632 18.4814 11.7229 16.9259 11.0529 15.1052C10.383 13.2846 10.3193 11.2961 10.8713 9.43632C11.4234 7.5765 12.5616 5.94484 14.1164 4.78451C15.6712 3.62419 17.5592 2.99731 19.4993 2.99731C21.4393 2.99731 23.3274 3.62419 24.8822 4.78451C26.4369 5.94484 27.5752 7.5765 28.1272 9.43632C28.6792 11.2961 28.6156 13.2846 27.9456 15.1052C27.2757 16.9259 26.0354 18.4814 24.4095 19.5398C24.2878 19.6194 24.1455 19.6619 24 19.6621Z" fill="white"/>
<path d="M15 15.4554C14.8707 15.4555 14.7436 15.4222 14.631 15.3587C14.5184 15.2953 14.4241 15.2038 14.3573 15.0931C13.8099 14.1828 13.514 13.1434 13.4998 12.0812C13.4856 11.019 13.7537 9.97216 14.2767 9.04753C14.7996 8.12289 15.5586 7.35367 16.4762 6.81845C17.3938 6.28324 18.437 6.00122 19.4993 6.00122C20.5615 6.00122 21.6048 6.28324 22.5223 6.81845C23.4399 7.35367 24.1989 8.12289 24.7219 9.04753C25.2448 9.97216 25.5129 11.019 25.4987 12.0812C25.4846 13.1434 25.1887 14.1828 24.6413 15.0931C24.5921 15.1808 24.5259 15.2577 24.4465 15.3193C24.3671 15.3808 24.2761 15.4258 24.1789 15.4515C24.0818 15.4773 23.9804 15.4832 23.8809 15.469C23.7815 15.4548 23.6858 15.4207 23.5998 15.3688C23.5137 15.317 23.4389 15.2483 23.3799 15.167C23.3209 15.0856 23.2788 14.9933 23.2562 14.8953C23.2336 14.7974 23.2309 14.696 23.2482 14.597C23.2656 14.498 23.3027 14.4035 23.3573 14.3191C23.7672 13.6363 23.9887 12.8569 23.9989 12.0605C24.0091 11.2641 23.8078 10.4793 23.4155 9.78615C23.0232 9.09302 22.454 8.51643 21.7659 8.11525C21.0779 7.71407 20.2957 7.50269 19.4993 7.50269C18.7028 7.50269 17.9206 7.71407 17.2326 8.11525C16.5446 8.51643 15.9753 9.09302 15.583 9.78615C15.1907 10.4793 14.9894 11.2641 14.9996 12.0605C15.0099 12.8569 15.2313 13.6363 15.6413 14.3191C15.7096 14.4328 15.7465 14.5626 15.7483 14.6952C15.7501 14.8278 15.7167 14.9585 15.6515 15.074C15.5864 15.1895 15.4917 15.2856 15.3773 15.3526C15.2628 15.4196 15.1326 15.4551 15 15.4554Z" fill="white"/>
<path d="M30.75 28.5C30.5511 28.5 30.3603 28.421 30.2197 28.2803C30.079 28.1397 30 27.9489 30 27.75V25.5C30 25.1022 29.842 24.7206 29.5607 24.4393C29.2794 24.158 28.8978 24 28.5 24C28.1022 24 27.7206 24.158 27.4393 24.4393C27.158 24.7206 27 25.1022 27 25.5V27.75C27 27.9489 26.921 28.1397 26.7803 28.2803C26.6397 28.421 26.4489 28.5 26.25 28.5C26.0511 28.5 25.8603 28.421 25.7197 28.2803C25.579 28.1397 25.5 27.9489 25.5 27.75V25.5C25.5 24.7044 25.8161 23.9413 26.3787 23.3787C26.9413 22.8161 27.7044 22.5 28.5 22.5C29.2956 22.5 30.0587 22.8161 30.6213 23.3787C31.1839 23.9413 31.5 24.7044 31.5 25.5V27.75C31.5 27.9489 31.421 28.1397 31.2803 28.2803C31.1397 28.421 30.9489 28.5 30.75 28.5Z" fill="white"/>
<path d="M26.25 28.5C26.0511 28.5 25.8603 28.421 25.7197 28.2803C25.579 28.1397 25.5 27.9489 25.5 27.75V24.75C25.5 24.3522 25.342 23.9706 25.0607 23.6893C24.7794 23.408 24.3978 23.25 24 23.25C23.6022 23.25 23.2206 23.408 22.9393 23.6893C22.658 23.9706 22.5 24.3522 22.5 24.75V27.75C22.5 27.9489 22.421 28.1397 22.2803 28.2803C22.1397 28.421 21.9489 28.5 21.75 28.5C21.5511 28.5 21.3603 28.421 21.2197 28.2803C21.079 28.1397 21 27.9489 21 27.75V24.75C21 23.9544 21.3161 23.1913 21.8787 22.6287C22.4413 22.0661 23.2044 21.75 24 21.75C24.7956 21.75 25.5587 22.0661 26.1213 22.6287C26.6839 23.1913 27 23.9544 27 24.75V27.75C27 27.9489 26.921 28.1397 26.7803 28.2803C26.6397 28.421 26.4489 28.5 26.25 28.5Z" fill="white"/>
<path d="M18.75 42C18.5975 42.0001 18.4487 41.9536 18.3233 41.867C18.1978 41.7803 18.1018 41.6574 18.048 41.5148C18.027 41.4585 15.897 35.9587 11.1953 35.25H8.25001C7.65327 35.25 7.08097 35.0129 6.65902 34.591C6.23706 34.169 6.00001 33.5967 6.00001 33V32.0408C5.99841 31.4607 6.22214 30.9027 6.62401 30.4845C7.21988 29.8569 7.93737 29.3572 8.73272 29.016C9.52806 28.6748 10.3846 28.4993 11.25 28.5C13.014 28.5234 14.7718 28.7135 16.5 29.0677V12C16.5 11.2044 16.8161 10.4413 17.3787 9.87868C17.9413 9.31607 18.7044 9 19.5 9C20.2957 9 21.0587 9.31607 21.6213 9.87868C22.1839 10.4413 22.5 11.2044 22.5 12V27.75C22.5 27.9489 22.421 28.1397 22.2803 28.2803C22.1397 28.421 21.9489 28.5 21.75 28.5C21.5511 28.5 21.3603 28.421 21.2197 28.2803C21.079 28.1397 21 27.9489 21 27.75V12C21 11.6022 20.842 11.2206 20.5607 10.9393C20.2794 10.658 19.8978 10.5 19.5 10.5C19.1022 10.5 18.7207 10.658 18.4393 10.9393C18.158 11.2206 18 11.6022 18 12V30C18 30.1139 17.974 30.2263 17.924 30.3287C17.8741 30.4311 17.8014 30.5208 17.7116 30.5909C17.6219 30.661 17.5173 30.7098 17.4058 30.7334C17.2944 30.7571 17.179 30.7551 17.0685 30.7275C15.16 30.2808 13.2097 30.0369 11.25 30C10.5871 29.9999 9.93107 30.1347 9.32195 30.3964C8.71282 30.658 8.16335 31.0409 7.70701 31.5217C7.57374 31.6616 7.49958 31.8475 7.50001 32.0408V33C7.50001 33.1989 7.57903 33.3897 7.71968 33.5303C7.86033 33.671 8.0511 33.75 8.25001 33.75H11.25C11.2856 33.7499 11.3212 33.7524 11.3565 33.7575C16.9815 34.5615 19.3545 40.7242 19.4565 40.9867C19.4992 41.1006 19.5135 41.223 19.4984 41.3436C19.4832 41.4642 19.439 41.5793 19.3694 41.679C19.2999 41.7787 19.2072 41.86 19.0993 41.9159C18.9914 41.9718 18.8715 42.0007 18.75 42Z" fill="white"/>
<path d="M35.25 48H17.25C17.0511 48 16.8603 47.921 16.7197 47.7803C16.579 47.6397 16.5 47.4489 16.5 47.25V41.25C16.5 41.0511 16.579 40.8603 16.7197 40.7197C16.8603 40.579 17.0511 40.5 17.25 40.5H35.25C35.4489 40.5 35.6397 40.579 35.7803 40.7197C35.921 40.8603 36 41.0511 36 41.25V42C36 42.1989 35.921 42.3897 35.7803 42.5303C35.6397 42.671 35.4489 42.75 35.25 42.75C35.0511 42.75 34.8603 42.671 34.7197 42.5303C34.579 42.3897 34.5 42.1989 34.5 42H18V46.5H34.5V45C34.5 44.8011 34.579 44.6103 34.7197 44.4697C34.8603 44.329 35.0511 44.25 35.25 44.25C35.4489 44.25 35.6397 44.329 35.7803 44.4697C35.921 44.6103 36 44.8011 36 45V47.25C36 47.4489 35.921 47.6397 35.7803 47.7803C35.6397 47.921 35.4489 48 35.25 48Z" fill="white"/>
<path d="M33.75 42C33.6222 41.9999 33.4965 41.9672 33.3849 41.9049C33.2733 41.8427 33.1795 41.7529 33.1123 41.6442C33.0452 41.5355 33.0069 41.4114 33.0011 41.2837C32.9954 41.1561 33.0223 41.0291 33.0795 40.9148L34.5 38.073V30C34.5 29.8011 34.579 29.6103 34.7196 29.4697C34.8603 29.329 35.0511 29.25 35.25 29.25C35.4489 29.25 35.6396 29.329 35.7803 29.4697C35.9209 29.6103 36 29.8011 36 30V38.25C36.0012 38.366 35.9756 38.4808 35.925 38.5852L34.425 41.5852C34.3624 41.7105 34.266 41.8157 34.1467 41.889C34.0274 41.9623 33.89 42.0008 33.75 42Z" fill="white"/>
<path d="M35.25 30.75C35.0511 30.75 34.8603 30.671 34.7197 30.5303C34.579 30.3897 34.5 30.1989 34.5 30V27C34.5 26.6022 34.342 26.2206 34.0607 25.9393C33.7794 25.658 33.3978 25.5 33 25.5C32.6022 25.5 32.2206 25.658 31.9393 25.9393C31.658 26.2206 31.5 26.6022 31.5 27V27.75C31.5 27.9489 31.421 28.1397 31.2803 28.2803C31.1397 28.421 30.9489 28.5 30.75 28.5C30.5511 28.5 30.3603 28.421 30.2197 28.2803C30.079 28.1397 30 27.9489 30 27.75V27C30 26.2044 30.3161 25.4413 30.8787 24.8787C31.4413 24.3161 32.2044 24 33 24C33.7956 24 34.5587 24.3161 35.1213 24.8787C35.6839 25.4413 36 26.2044 36 27V30C36 30.1989 35.921 30.3897 35.7803 30.5303C35.6397 30.671 35.4489 30.75 35.25 30.75Z" fill="white"/>
</g>
<defs>
<clipPath id="clip0_88_5722">
<rect width="48" height="48" fill="white"/>
</clipPath>
</defs>
</svg>
