<svg width="48" height="48" viewBox="0 0 48 48" fill="none" xmlns="http://www.w3.org/2000/svg">
<path d="M48 10.112C48 7.844 46.906 5.714 45.072 4.414C42.228 2.4 37.714 0 32.364 0H15.636C10.286 0 5.772 2.4 2.928 4.414C1.094 5.712 0 7.844 0 10.112V42H8V48H40V42H48V10.112ZM30.654 2L24.06 13.724L17.36 2H30.654ZM2 40V10.112C2 8.49 2.78 6.972 4.084 6.048C6.586 4.274 10.484 2.176 15.062 2.01L22.916 15.756L14.904 30H10V12H8V40H2ZM10 46V32H22.31C20.916 33.974 18 38.52 18 42H20C20 39.172 22.544 35.164 23.85 33.292C25.472 35.448 28 39.366 28 42H30C30 38.52 26.888 33.99 25.378 32H38V46H10ZM46 40H40V12H38V30H17.198L32.942 2.01C37.52 2.176 41.414 4.276 43.916 6.048C45.22 6.972 46 8.492 46 10.112V40Z" fill="black"/>
</svg>
