<svg width="15" height="15" viewBox="0 0 15 15" fill="none" xmlns="http://www.w3.org/2000/svg">
<path d="M13.3441 0.328125C13.8671 0.328125 14.3285 0.789551 14.3285 1.34326V13.125C14.3285 13.6787 13.8671 14.1094 13.3441 14.1094H1.50085C0.977905 14.1094 0.547241 13.6787 0.547241 13.125V1.34326C0.547241 0.789551 0.977905 0.328125 1.50085 0.328125H13.3441ZM4.70007 12.1406V5.58838H2.6698V12.1406H4.70007ZM3.68494 4.66553C4.33093 4.66553 4.85388 4.14258 4.85388 3.49658C4.85388 2.85059 4.33093 2.29688 3.68494 2.29688C3.00818 2.29688 2.48523 2.85059 2.48523 3.49658C2.48523 4.14258 3.00818 4.66553 3.68494 4.66553ZM12.3597 12.1406V8.5415C12.3597 6.78809 11.9598 5.40381 9.8988 5.40381C8.91443 5.40381 8.23767 5.95752 7.96082 6.48047H7.93005V5.58838H5.99207V12.1406H8.02234V8.91064C8.02234 8.04932 8.17615 7.21875 9.25281 7.21875C10.2987 7.21875 10.2987 8.20312 10.2987 8.94141V12.1406H12.3597Z" fill="white"/>
</svg>
