<svg width="428" height="462" viewBox="0 0 428 462" fill="none" xmlns="http://www.w3.org/2000/svg">
<g clip-path="url(#clip0_88_5661)">
<path d="M131.227 290.263C131.3 290.406 131.321 290.569 131.287 290.725C131.254 290.881 131.167 291.021 131.043 291.121C130.918 291.221 130.763 291.275 130.603 291.274C130.443 291.273 130.288 291.217 130.165 291.115C106.473 270.632 -52.5708 130.431 -4.34173 97.953C40.4018 67.8762 114.939 100.43 135.09 110.226C135.339 110.343 135.539 110.543 135.655 110.793C135.771 111.042 135.795 111.324 135.724 111.589C135.653 111.855 135.491 112.087 135.266 112.245C135.041 112.403 134.767 112.477 134.493 112.453C114.24 111.385 47.7496 110.888 62.4152 151.199C77.7342 193.314 121.608 272.982 131.227 290.263Z" fill="white"/>
<path d="M134.867 289.148C134.85 289.324 134.764 289.487 134.627 289.599C134.49 289.712 134.314 289.766 134.138 289.748C133.962 289.731 133.799 289.645 133.687 289.508C133.574 289.371 133.521 289.195 133.538 289.019C131.286 257.681 117.928 46.1605 175.042 57.1817C227.931 67.5636 257.591 143.423 264.906 164.634C265.001 164.891 265.002 165.173 264.91 165.431C264.819 165.689 264.639 165.907 264.404 166.046C264.168 166.186 263.891 166.239 263.621 166.195C263.351 166.152 263.104 166.015 262.924 165.809C249.325 150.796 202.679 103.394 184.542 142.229C165.604 182.783 140.302 270.14 134.867 289.148Z" fill="white"/>
<path d="M138.209 290.957C138.067 291.029 137.903 291.05 137.747 291.017C137.591 290.983 137.451 290.897 137.351 290.772C137.251 290.647 137.197 290.492 137.198 290.332C137.199 290.172 137.255 290.018 137.357 289.894C157.876 266.212 298.041 107.159 330.519 155.388C360.631 200.141 328.042 274.668 318.246 294.82C318.129 295.069 317.929 295.269 317.68 295.384C317.43 295.5 317.148 295.525 316.883 295.454C316.617 295.383 316.385 295.22 316.227 294.995C316.069 294.77 315.995 294.497 316.019 294.223C317.097 273.934 317.584 207.479 277.283 222.109C235.229 237.483 155.49 281.338 138.209 290.957Z" fill="white"/>
<path d="M139.314 294.587C139.137 294.57 138.975 294.483 138.862 294.347C138.75 294.21 138.696 294.034 138.713 293.858C138.73 293.681 138.817 293.519 138.954 293.406C139.09 293.294 139.266 293.24 139.443 293.257C170.71 290.986 382.372 277.667 371.139 334.724C360.757 387.613 285.039 417.311 263.686 424.588C263.429 424.682 263.147 424.684 262.889 424.592C262.631 424.5 262.413 424.321 262.274 424.086C262.134 423.85 262.082 423.573 262.125 423.303C262.169 423.032 262.305 422.786 262.512 422.606C277.525 409.006 324.927 362.361 286.091 344.224C245.785 325.352 158.322 300.021 139.314 294.587Z" fill="white"/>
<path d="M137.51 297.934C137.438 297.792 137.416 297.629 137.45 297.472C137.484 297.316 137.57 297.176 137.695 297.076C137.819 296.976 137.975 296.922 138.135 296.923C138.294 296.924 138.449 296.98 138.572 297.082C162.255 317.601 321.308 457.767 273.079 490.244C228.361 520.366 153.798 487.767 133.647 477.972C133.398 477.855 133.198 477.654 133.082 477.405C132.966 477.156 132.942 476.873 133.013 476.608C133.084 476.342 133.246 476.11 133.471 475.952C133.696 475.794 133.97 475.721 134.244 475.744C154.498 476.813 220.988 477.31 206.322 436.999C190.984 394.954 147.129 315.216 137.51 297.934Z" fill="white"/>
<path d="M133.874 299.042C133.882 298.955 133.908 298.87 133.949 298.792C133.99 298.715 134.046 298.646 134.114 298.591C134.182 298.535 134.26 298.493 134.344 298.468C134.428 298.442 134.516 298.433 134.603 298.442C134.69 298.45 134.775 298.476 134.852 298.517C134.93 298.558 134.998 298.614 135.054 298.682C135.11 298.75 135.152 298.828 135.177 298.912C135.203 298.995 135.212 299.084 135.203 299.171C137.474 330.438 150.794 542.1 93.7367 530.867C40.8476 520.485 11.1851 444.777 3.87264 423.414C3.77818 423.157 3.77671 422.875 3.86849 422.617C3.96027 422.359 4.1395 422.142 4.37505 422.002C4.61059 421.863 4.88758 421.81 5.15789 421.853C5.42821 421.897 5.67477 422.034 5.85476 422.24C19.4542 437.253 66.0998 484.655 84.2367 445.819C103.038 405.494 128.439 318.05 133.874 299.042Z" fill="white"/>
<path d="M130.529 297.237C130.671 297.164 130.834 297.143 130.991 297.176C131.147 297.21 131.287 297.296 131.387 297.421C131.487 297.546 131.541 297.701 131.54 297.861C131.539 298.021 131.483 298.175 131.381 298.299C110.897 321.991 -29.3035 481.034 -61.7813 432.805C-91.8676 388.097 -59.3041 313.525 -49.5085 293.373C-49.3917 293.124 -49.1911 292.925 -48.9418 292.809C-48.6925 292.693 -48.4104 292.668 -48.1449 292.739C-47.8793 292.811 -47.6473 292.973 -47.4893 293.198C-47.3314 293.423 -47.2576 293.696 -47.2809 293.97C-48.3497 314.224 -48.8467 380.714 -8.53579 366.048C33.5797 350.729 113.247 306.855 130.529 297.237Z" fill="white"/>
<path d="M129.424 293.607C129.511 293.615 129.596 293.641 129.673 293.682C129.751 293.723 129.819 293.779 129.875 293.847C129.931 293.915 129.973 293.993 129.998 294.077C130.024 294.161 130.033 294.249 130.024 294.336C130.016 294.424 129.99 294.508 129.949 294.586C129.908 294.663 129.852 294.732 129.784 294.787C129.716 294.843 129.638 294.885 129.554 294.911C129.47 294.936 129.382 294.945 129.295 294.937C97.9569 297.189 -113.564 310.546 -102.542 253.432C-92.1605 200.543 -16.311 170.918 4.91029 163.568C5.16726 163.474 5.44919 163.472 5.70713 163.564C5.96507 163.656 6.18271 163.835 6.32226 164.07C6.4618 164.306 6.51443 164.583 6.47101 164.853C6.42758 165.124 6.29085 165.37 6.08455 165.55C-8.92854 179.15 -56.3304 225.795 -17.4948 243.932C23.0777 262.8 110.406 288.208 129.424 293.607Z" fill="white"/>
</g>
<defs>
<clipPath id="clip0_88_5661">
<rect width="478.731" height="478.731" fill="white" transform="translate(-34.8909 0.936768) rotate(15)"/>
</clipPath>
</defs>
</svg>
