<svg width="48" height="48" viewBox="0 0 48 48" fill="none" xmlns="http://www.w3.org/2000/svg">
<path d="M30.816 20.578C30.592 20.898 30.208 21.056 29.814 20.984C26.768 20.408 24.17 17.53 22.894 15.864C21.96 14.648 20.598 13.982 19.338 14C17.69 14.062 16.698 15.124 16.47 17.072C15.958 21.46 16 23.486 16 23.506C16 28.632 17.592 30.816 21.722 31.37C21.896 28.568 22 25.236 22 21.004C22 20.452 22.448 20.004 23 20.004C23.552 20.004 24 20.452 24 21.004C24 33.066 23.18 37.998 22.228 43.708L21.986 45.166C21.9 45.716 21.37 46.08 20.838 45.992C20.294 45.902 19.924 45.388 20.014 44.842L20.256 43.38C20.776 40.252 21.256 37.358 21.582 33.362C16.37 32.694 14 29.654 14 23.534C14 23.472 13.954 21.402 14.482 16.844C14.826 13.912 16.612 12.104 19.264 12.006C21.23 11.934 23.154 12.922 24.48 14.65C25.294 15.712 27.322 18.106 29.566 18.858C32.104 14.906 32.002 11.082 32 11.042C31.98 10.49 32.412 10.026 32.962 10.006C33.534 10.036 33.976 10.416 34 10.964C34.008 11.162 34.156 15.858 30.816 20.582V20.578ZM16 6C16 3.308 17.308 2 20 2C22.692 2 24 3.308 24 6C24 8.692 22.692 10 20 10C17.308 10 16 8.692 16 6ZM18 6C18 7.588 18.412 8 20 8C21.588 8 22 7.588 22 6C22 4.412 21.588 4 20 4C18.412 4 18 4.412 18 6Z" fill="black"/>
</svg>
