<svg width="26" height="26" viewBox="0 0 26 26" fill="none" xmlns="http://www.w3.org/2000/svg">
<path d="M10.8881 5.26869C11.4269 3.61033 13.7731 3.61033 14.3119 5.26869L15.0248 7.46262C15.2657 8.20426 15.9568 8.70639 16.7367 8.70639H19.0435C20.7872 8.70639 21.5122 10.9377 20.1015 11.9626L18.2352 13.3185C17.6044 13.7769 17.3404 14.5894 17.5813 15.331L18.2942 17.5249C18.833 19.1833 16.935 20.5623 15.5243 19.5374L13.658 18.1815C13.0271 17.7231 12.1729 17.7231 11.542 18.1815L9.67572 19.5374C8.26504 20.5623 6.36697 19.1833 6.90581 17.5249L7.61866 15.331C7.85963 14.5894 7.59565 13.7769 6.96477 13.3185L5.0985 11.9626C3.68782 10.9377 4.41282 8.70639 6.15652 8.70639H8.46335C9.24316 8.70639 9.93428 8.20426 10.1752 7.46262L10.8881 5.26869Z" fill="#F28833"/>
</svg>
