<svg width="48" height="48" viewBox="0 0 48 48" fill="none" xmlns="http://www.w3.org/2000/svg">
<g clip-path="url(#clip0_1_1587)">
<path d="M24.328 20.2603L46.328 0.260309C46.736 -0.109691 47.37 -0.083691 47.74 0.328309C48.112 0.736309 48.082 1.37031 47.672 1.74031L25.672 21.7403C25.48 21.9143 25.24 22.0003 25 22.0003C24.728 22.0003 24.458 21.8903 24.26 21.6723C23.888 21.2643 23.918 20.6303 24.328 20.2603ZM48 35.5003C48 41.8463 38.692 48.0003 24 48.0003C9.308 48.0003 0 41.7703 0 35.5003V18.0003C0 11.2723 10.542 6.00031 24 6.00031C26.444 6.00031 28.85 6.17831 31.15 6.53231C31.696 6.61631 32.072 7.12631 31.988 7.67031C31.904 8.21831 31.382 8.59231 30.85 8.50831C28.646 8.17231 26.342 8.00031 24 8.00031C12.074 8.00031 2 12.5803 2 18.0003C2 23.4203 12.074 28.0003 24 28.0003C35.926 28.0003 46 23.4203 46 18.0003C46 15.6203 44.056 13.7583 42.426 12.6203C41.974 12.3023 41.864 11.6783 42.18 11.2263C42.498 10.7723 43.122 10.6683 43.574 10.9803C46.468 13.0083 48 15.4363 48 18.0023V35.5003ZM30 29.6363V45.5863C32.954 45.1703 35.674 44.4603 38 43.5283V27.8083C35.63 28.6463 32.93 29.2723 30 29.6363ZM10 27.8083V43.5283C12.326 44.4603 15.046 45.1703 18 45.5863V29.6363C15.07 29.2723 12.37 28.6463 10 27.8083ZM8 42.6243V27.0163C5.442 25.8843 3.386 24.4783 2 22.8803V35.5003C2 38.2183 4.3 40.7363 8 42.6243ZM24 46.0023C25.362 46.0023 26.698 45.9383 28 45.8203V29.8443C26.702 29.9483 25.366 30.0043 24 30.0043C22.634 30.0043 21.298 29.9483 20 29.8443V45.8203C21.302 45.9403 22.638 46.0023 24 46.0023ZM46 22.8823C44.614 24.4803 42.558 25.8863 40 27.0183V42.6263C43.7 40.7383 46 38.2223 46 35.5043V22.8843V22.8823Z" fill="black"/>
</g>
<defs>
<clipPath id="clip0_1_1587">
<rect width="48" height="48" fill="white"/>
</clipPath>
</defs>
</svg>
