<svg width="48" height="48" viewBox="0 0 48 48" fill="none" xmlns="http://www.w3.org/2000/svg">
<path d="M39 4H9C4.038 4 0 8.038 0 13V35C0 39.962 4.038 44 9 44H39C43.962 44 48 39.962 48 35V13C48 8.038 43.962 4 39 4ZM9 6H39C42.86 6 46 9.14 46 13V26H2V13C2 9.14 5.14 6 9 6ZM39 42H9C5.14 42 2 38.86 2 35V28H8V35C8 35.552 8.448 36 9 36C9.552 36 10 35.552 10 35V28H14V35C14 35.552 14.448 36 15 36C15.552 36 16 35.552 16 35V28H20V35C20 35.552 20.448 36 21 36C21.552 36 22 35.552 22 35V28H26V35C26 35.552 26.448 36 27 36C27.552 36 28 35.552 28 35V28H32V35C32 35.552 32.448 36 33 36C33.552 36 34 35.552 34 35V28H38V35C38 35.552 38.448 36 39 36C39.552 36 40 35.552 40 35V28H46V35C46 38.86 42.86 42 39 42Z" fill="black"/>
</svg>
