<svg width="48" height="48" viewBox="0 0 48 48" fill="none" xmlns="http://www.w3.org/2000/svg">
<path d="M18.9922 23.997C16.2342 23.997 13.9922 26.239 13.9922 28.997C13.9922 31.755 16.2342 33.997 18.9922 33.997C21.7502 33.997 23.9922 31.755 23.9922 28.997C23.9922 26.239 21.7502 23.997 18.9922 23.997ZM18.9922 31.997C17.3382 31.997 15.9922 30.651 15.9922 28.997C15.9922 27.343 17.3382 25.997 18.9922 25.997C20.6462 25.997 21.9922 27.343 21.9922 28.997C21.9922 30.651 20.6462 31.997 18.9922 31.997ZM9.20021 33.789L14.2002 38.789L12.7862 40.203L7.78621 35.203L9.20021 33.789ZM46.7682 1.221C45.1402 -0.407 42.4822 -0.407 40.8542 1.221L37.9922 4.083V8.583L31.6122 14.963C27.1102 11.109 20.6542 10.975 16.8182 14.819C16.1182 15.515 15.5362 16.331 15.0882 17.245C14.8502 17.725 14.4422 18.087 13.8902 18.011C10.0362 17.877 6.43221 19.229 3.82821 21.833C-1.69579 27.357 -1.17979 36.857 4.97621 43.013C8.27221 46.309 12.5282 47.989 16.6202 47.989C20.1662 47.989 23.5902 46.725 26.1562 44.161C28.7602 41.559 30.1142 37.985 29.9782 34.099C29.9602 33.611 30.2622 33.141 30.7422 32.901C31.6582 32.451 32.4742 31.869 33.1682 31.173C37.0102 27.331 36.8822 20.879 33.0262 16.377L39.4062 9.997H43.9062L46.7682 7.135C48.3982 5.505 48.3982 2.851 46.7682 1.221ZM31.7522 29.761C31.2122 30.303 30.5762 30.755 29.8582 31.109C28.6722 31.695 27.9362 32.897 27.9802 34.169C28.1002 37.495 26.9482 40.543 24.7442 42.747C20.0022 47.489 11.7722 46.975 6.39221 41.599C1.01621 36.223 0.502206 27.989 5.24421 23.247C7.34821 21.145 10.2122 20.001 13.3582 20.001C13.5122 20.001 13.6682 20.005 13.8222 20.011C15.1502 19.999 16.2982 19.315 16.8822 18.131C17.2362 17.415 17.6882 16.777 18.2322 16.237C21.3002 13.169 26.4882 13.299 30.1962 16.383L24.2882 22.291L25.7022 23.705L31.6122 17.795C34.6982 21.505 34.8242 26.693 31.7562 29.761H31.7522ZM45.3542 5.721L43.0782 7.997H39.9922V4.911L42.2682 2.635C43.1202 1.783 44.5022 1.783 45.3542 2.635C46.2062 3.487 46.2062 4.869 45.3542 5.721Z" fill="black"/>
</svg>
